<svg width="31" height="31" viewBox="0 0 31 31" fill="none" xmlns="http://www.w3.org/2000/svg">
<g clip-path="url(#clip0_1535_85)">
<path d="M31.2095 20.3176C31.2095 23.942 31.2095 27.5665 31.2095 31.2002C20.8999 31.2002 10.5902 31.2002 0.209473 31.2002C0.209473 27.2256 0.209473 23.2414 0.280452 19.1675C0.699332 19.3683 1.04302 19.6641 1.39575 19.9486C8.83173 25.9459 20.1752 26.5816 27.736 21.4042C28.0293 21.2033 28.1816 20.7965 28.3996 20.4857C28.02 20.4928 27.6007 20.3954 27.2665 20.5222C18.364 23.9017 9.7077 23.3379 1.27115 18.9658C0.948075 18.7984 0.564733 18.7472 0.209473 18.6419C0.209473 12.5061 0.209473 6.37026 0.209473 0.221954C10.5205 0.221954 20.8315 0.221954 31.2095 0.221954C31.2095 6.21817 31.2095 12.2271 31.1389 18.3034C29.2633 17.52 26.2541 17.9835 25.5477 19.3039C26.4239 19.2492 27.2475 19.1664 28.0722 19.1528C29.7726 19.1249 30.0126 19.4285 29.5605 21.0485C29.326 21.8886 29.0186 22.7084 28.7441 23.5374C28.8534 23.6002 28.9627 23.663 29.072 23.7258C29.5263 23.1036 30.0104 22.5004 30.4249 21.8527C30.7332 21.371 30.9512 20.8314 31.2095 20.3176ZM8.82502 8.84563C8.60925 8.38739 8.47537 7.86149 8.16282 7.48323C7.09615 6.19232 3.64564 6.05242 2.41911 7.25378C2.17741 7.49052 2.16286 7.95917 1.96814 8.54947C2.643 8.34162 2.99407 8.18254 3.36026 8.13109C4.17735 8.01629 5.01479 7.82519 5.82036 7.90455C6.87269 8.00822 7.60592 9.40614 7.238 10.3922C7.17888 10.5506 6.95331 10.7654 6.81673 10.757C6.00206 10.7073 5.19197 10.5881 4.37836 10.514C2.99601 10.3882 1.69113 11.5112 1.50268 12.9724C1.30492 14.5059 2.24152 15.7423 3.75099 15.9661C5.16148 16.1753 6.33061 15.6814 7.31781 14.7004C8.17558 15.9437 8.45064 16.0395 9.15808 15.395C9.8349 14.7784 8.99191 14.3508 8.9719 13.6261C8.91418 12.0861 8.85645 10.5462 8.82502 8.84563ZM11.2721 11.4673C11.6192 12.5999 12.0204 13.7196 12.2948 14.8696C12.4845 15.6645 12.9296 15.7924 13.6474 15.8037C14.4494 15.8163 14.5339 15.3041 14.6648 14.7488C15.1069 12.8743 15.5549 11.0012 16.0006 9.1276C16.6983 11.0557 17.1701 12.994 17.6286 14.9354C17.7502 15.4504 17.9079 15.8466 18.5729 15.8042C19.1764 15.7657 19.6725 15.832 19.9068 15.0088C20.6308 12.4652 21.4724 9.95519 22.261 7.42983C22.3271 7.21821 22.3385 6.98952 22.3769 6.75889C20.6762 6.68634 20.6831 6.6881 20.3251 8.08551C19.8552 9.91988 19.3732 11.7511 18.8963 13.5837C18.201 11.5739 17.704 9.61655 17.285 7.64262C17.1376 6.94823 16.8976 6.64106 16.1308 6.64048C15.3486 6.63988 15.1113 6.9725 14.9996 7.66579C14.8613 8.52452 14.6196 9.36699 14.4144 10.2145C14.1563 11.2797 13.8899 12.343 13.6272 13.4071C12.9121 11.6015 12.439 9.79595 11.9777 7.98733C11.6027 6.51707 11.5232 6.46464 9.87173 6.8292C10.3251 8.32565 10.7765 9.81559 11.2721 11.4673ZM24.5058 11.2315C25.3219 11.526 26.1388 11.8184 26.9539 12.1158C27.6255 12.361 28.3498 12.624 28.1934 13.5281C28.0408 14.4104 27.3014 14.6721 26.5334 14.6379C25.7106 14.6014 24.8976 14.3802 24.0744 14.3002C23.7884 14.2724 23.4848 14.4257 23.1893 14.4963C23.275 14.809 23.2592 15.2394 23.463 15.4152C24.726 16.5044 28.0862 16.2166 29.2262 14.9697C30.3883 13.6986 30.1197 11.9929 28.5662 11.1986C27.6307 10.7202 26.6026 10.4249 25.657 9.9634C24.8385 9.56391 24.6724 8.67778 25.3116 8.20206C25.6482 7.95158 26.1471 7.78005 26.5611 7.80124C27.4756 7.84803 28.3828 8.03939 29.2927 8.17173C29.4285 7.19831 29.367 6.89193 28.7042 6.77296C27.6915 6.59118 26.6342 6.43328 25.6221 6.5326C24.4901 6.64368 23.6019 7.33908 23.3095 8.51498C23.0364 9.61325 23.4784 10.4874 24.5058 11.2315Z" fill="#FDFDFD"/>
<path d="M0.209473 18.7117C0.564733 18.7472 0.948075 18.7984 1.27115 18.9658C9.7077 23.3379 18.364 23.9017 27.2665 20.5222C27.6007 20.3954 28.02 20.4928 28.3996 20.4857C28.1816 20.7965 28.0293 21.2033 27.736 21.4042C20.1752 26.5816 8.83174 25.9459 1.39575 19.9486C1.04302 19.6641 0.699332 19.3684 0.280452 19.0693C0.209473 18.9677 0.209473 18.8746 0.209473 18.7117Z" fill="#FF9C0A"/>
<path d="M31.2094 20.2233C30.9512 20.8314 30.7331 21.371 30.4248 21.8527C30.0103 22.5004 29.5262 23.1036 29.0719 23.7258C28.9626 23.663 28.8533 23.6002 28.744 23.5374C29.0185 22.7084 29.3259 21.8886 29.5604 21.0485C30.0125 19.4285 29.7725 19.1249 28.0722 19.1528C27.2474 19.1664 26.4238 19.2492 25.5476 19.3039C26.254 17.9835 29.2632 17.52 31.1388 18.4015C31.2094 18.998 31.2094 19.5635 31.2094 20.2233Z" fill="#FF9D0E"/>
<path d="M11.2501 11.3864C10.7766 9.81559 10.3252 8.32565 9.87183 6.82919C11.5232 6.46464 11.6028 6.51707 11.9778 7.98733C12.4391 9.79595 12.9122 11.6015 13.6273 13.4071C13.89 12.343 14.1564 11.2797 14.4145 10.2145C14.6197 9.36699 14.8614 8.52452 14.9997 7.66578C15.1114 6.9725 15.3487 6.63988 16.1308 6.64048C16.8977 6.64106 17.1377 6.94823 17.2851 7.64262C17.7041 9.61655 18.2011 11.5739 18.8964 13.5837C19.3733 11.7511 19.8553 9.91988 20.3252 8.08551C20.6832 6.6881 20.6763 6.68634 22.377 6.75889C22.3386 6.98952 22.3272 7.21821 22.2611 7.42983C21.4724 9.95518 20.6309 12.4652 19.9069 15.0088C19.6726 15.832 19.1764 15.7657 18.573 15.8042C17.908 15.8466 17.7503 15.4504 17.6287 14.9354C17.1702 12.994 16.6984 11.0557 16.0007 9.1276C15.555 11.0012 15.107 12.8743 14.6649 14.7488C14.534 15.3041 14.4495 15.8163 13.6475 15.8037C12.9297 15.7924 12.4846 15.6645 12.2949 14.8696C12.0205 13.7196 11.6193 12.5999 11.2501 11.3864Z" fill="#2C3544"/>
<path d="M8.96249 13.822C8.99179 14.3508 9.83479 14.7784 9.15796 15.395C8.45052 16.0395 8.17546 15.9437 7.3177 14.7004C6.3305 15.6814 5.16136 16.1753 3.75087 15.9661C2.2414 15.7423 1.3048 14.5059 1.50256 12.9724C1.69101 11.5111 2.99589 10.3882 4.37824 10.514C5.19185 10.5881 6.00194 10.7073 6.81661 10.757C6.9532 10.7654 7.17877 10.5506 7.23788 10.3922C7.6058 9.40613 6.87257 8.00821 5.82025 7.90454C5.01468 7.82519 4.17723 8.01628 3.36015 8.13108C2.99395 8.18253 2.64288 8.34162 1.96802 8.54947C2.16274 7.95916 2.1773 7.49051 2.419 7.25377C3.64553 6.05241 7.09604 6.19231 8.1627 7.48322C8.47525 7.86149 8.60913 8.38739 8.74911 8.98729C8.64476 10.5164 8.60246 11.9038 8.60469 13.2912C8.60498 13.4683 8.83754 13.6451 8.96249 13.822ZM4.56256 14.6685C6.59921 14.6114 7.49739 13.6365 7.11048 11.659C6.32791 11.659 5.49874 11.6027 4.68106 11.6754C3.91852 11.7432 3.381 12.167 3.31654 13.0069C3.25362 13.8269 3.48837 14.4587 4.56256 14.6685Z" fill="#2A3443"/>
<path d="M24.4419 11.1871C23.4783 10.4874 23.0363 9.61325 23.3094 8.51498C23.6018 7.33908 24.49 6.64368 25.622 6.5326C26.6341 6.43329 27.6914 6.59118 28.7041 6.77297C29.3669 6.89194 29.4284 7.19831 29.2926 8.17173C28.3827 8.03939 27.4755 7.84804 26.561 7.80124C26.147 7.78006 25.6481 7.95158 25.3115 8.20206C24.6723 8.67778 24.8384 9.56391 25.657 9.9634C26.6025 10.4249 27.6306 10.7202 28.5661 11.1986C30.1196 11.9929 30.3882 13.6986 29.2261 14.9697C28.0861 16.2166 24.7259 16.5044 23.4629 15.4152C23.2591 15.2394 23.2749 14.809 23.1892 14.4963C23.4847 14.4257 23.7883 14.2724 24.0743 14.3002C24.8975 14.3802 25.7105 14.6014 26.5333 14.6379C27.3013 14.6721 28.0407 14.4104 28.1933 13.5281C28.3497 12.624 27.6254 12.361 26.9538 12.1158C26.1387 11.8184 25.3218 11.526 24.4419 11.1871Z" fill="#2A3443"/>
<path d="M8.96727 13.724C8.83767 13.6451 8.60511 13.4683 8.60482 13.2912C8.60258 11.9038 8.64489 10.5164 8.73609 9.06763C8.85646 10.5462 8.91419 12.0861 8.96727 13.724Z" fill="#1F2C3E"/>
<path d="M4.4761 14.6609C3.48845 14.4587 3.2537 13.8269 3.31662 13.0069C3.38108 12.167 3.91861 11.7433 4.68115 11.6754C5.49883 11.6027 6.32799 11.659 7.11056 11.659C7.49747 13.6365 6.5993 14.6115 4.4761 14.6609Z" fill="#F7F7F8"/>
</g>
<defs>
<clipPath id="clip0_1535_85">
<rect width="31" height="31" fill="white"/>
</clipPath>
</defs>
</svg>
