<svg width="238" height="248" viewBox="0 0 238 248" fill="none" xmlns="http://www.w3.org/2000/svg">
<path d="M123 5.21352C123 5.21352 127.251 0.494547 127.251 2.49356V17M127.251 17L123 17M127.251 17L131 17" stroke="white" stroke-width="3" stroke-linecap="round"/>
<path d="M123 30.2135C123 30.2135 127.251 25.4945 127.251 27.4936V42M127.251 42L123 42M127.251 42L131 42" stroke="white" stroke-width="3" stroke-linecap="round"/>
<path d="M164 30.2135C164 30.2135 168.783 25.4945 168.783 27.4936V42M168.783 42L164 42M168.783 42L173 42" stroke="white" stroke-width="3" stroke-linecap="round"/>
<path d="M123 54.4278C123 54.4278 127.251 49.3942 127.251 51.5265V67M127.251 67L123 67M127.251 67L131 67" stroke="white" stroke-width="3" stroke-linecap="round"/>
<path d="M102 30.2135C102 30.2135 106.783 25.4945 106.783 27.4936V42M106.783 42L102 42M106.783 42L111 42" stroke="white" stroke-width="3" stroke-linecap="round"/>
<path d="M150.5 9.5C150.5 11.6525 150.035 13.5268 149.356 14.8086C148.642 16.1574 147.913 16.5 147.5 16.5C147.087 16.5 146.358 16.1574 145.644 14.8086C144.965 13.5268 144.5 11.6525 144.5 9.5C144.5 7.3475 144.965 5.47318 145.644 4.19142C146.358 2.84255 147.087 2.5 147.5 2.5C147.913 2.5 148.642 2.84255 149.356 4.19142C150.035 5.47318 150.5 7.3475 150.5 9.5Z" stroke="white" stroke-width="3"/>
<path d="M109.5 9.5C109.5 11.6272 108.99 13.4799 108.243 14.7499C107.475 16.0545 106.632 16.5 106 16.5C105.368 16.5 104.525 16.0545 103.757 14.7499C103.01 13.4799 102.5 11.6272 102.5 9.5C102.5 7.37276 103.01 5.52007 103.757 4.25012C104.525 2.9455 105.368 2.5 106 2.5C106.632 2.5 107.475 2.9455 108.243 4.25012C108.99 5.52007 109.5 7.37276 109.5 9.5Z" stroke="white" stroke-width="3"/>
<path d="M172.5 9.5C172.5 11.6272 171.99 13.4799 171.243 14.7499C170.475 16.0545 169.632 16.5 169 16.5C168.368 16.5 167.525 16.0545 166.757 14.7499C166.01 13.4799 165.5 11.6272 165.5 9.5C165.5 7.37276 166.01 5.52007 166.757 4.25012C167.525 2.9455 168.368 2.5 169 2.5C169.632 2.5 170.475 2.9455 171.243 4.25012C171.99 5.52007 172.5 7.37276 172.5 9.5Z" stroke="white" stroke-width="3"/>
<path d="M150.5 34.5C150.5 36.6525 150.035 38.5268 149.356 39.8086C148.642 41.1574 147.913 41.5 147.5 41.5C147.087 41.5 146.358 41.1574 145.644 39.8086C144.965 38.5268 144.5 36.6525 144.5 34.5C144.5 32.3475 144.965 30.4732 145.644 29.1914C146.358 27.8426 147.087 27.5 147.5 27.5C147.913 27.5 148.642 27.8426 149.356 29.1914C150.035 30.4732 150.5 32.3475 150.5 34.5Z" stroke="white" stroke-width="3"/>
<path d="M150.5 59.5C150.5 61.6525 150.035 63.5268 149.356 64.8086C148.642 66.1574 147.913 66.5 147.5 66.5C147.087 66.5 146.358 66.1574 145.644 64.8086C144.965 63.5268 144.5 61.6525 144.5 59.5C144.5 57.3475 144.965 55.4732 145.644 54.1914C146.358 52.8426 147.087 52.5 147.5 52.5C147.913 52.5 148.642 52.8426 149.356 54.1914C150.035 55.4732 150.5 57.3475 150.5 59.5Z" stroke="white" stroke-width="3"/>
<path d="M109.5 59.5C109.5 61.6272 108.99 63.4799 108.243 64.7499C107.475 66.0545 106.632 66.5 106 66.5C105.368 66.5 104.525 66.0545 103.757 64.7499C103.01 63.4799 102.5 61.6272 102.5 59.5C102.5 57.3728 103.01 55.5201 103.757 54.2501C104.525 52.9455 105.368 52.5 106 52.5C106.632 52.5 107.475 52.9455 108.243 54.2501C108.99 55.5201 109.5 57.3728 109.5 59.5Z" stroke="white" stroke-width="3"/>
<path d="M172.5 59.5C172.5 61.6272 171.99 63.4799 171.243 64.7499C170.475 66.0545 169.632 66.5 169 66.5C168.368 66.5 167.525 66.0545 166.757 64.7499C166.01 63.4799 165.5 61.6272 165.5 59.5C165.5 57.3728 166.01 55.5201 166.757 54.2501C167.525 52.9455 168.368 52.5 169 52.5C169.632 52.5 170.475 52.9455 171.243 54.2501C171.99 55.5201 172.5 57.3728 172.5 59.5Z" stroke="white" stroke-width="3"/>
<path d="M123 5.21352C123 5.21352 127.251 0.494547 127.251 2.49356V17M127.251 17L123 17M127.251 17L131 17" stroke="white" stroke-width="3" stroke-linecap="round"/>
<path d="M123 30.2135C123 30.2135 127.251 25.4945 127.251 27.4936V42M127.251 42L123 42M127.251 42L131 42" stroke="white" stroke-width="3" stroke-linecap="round"/>
<path d="M164 30.2135C164 30.2135 168.783 25.4945 168.783 27.4936V42M168.783 42L164 42M168.783 42L173 42" stroke="white" stroke-width="3" stroke-linecap="round"/>
<path d="M123 54.4278C123 54.4278 127.251 49.3942 127.251 51.5265V67M127.251 67L123 67M127.251 67L131 67" stroke="white" stroke-width="3" stroke-linecap="round"/>
<path d="M102 30.2135C102 30.2135 106.783 25.4945 106.783 27.4936V42M106.783 42L102 42M106.783 42L111 42" stroke="white" stroke-width="3" stroke-linecap="round"/>
<path d="M150.5 9.5C150.5 11.6525 150.035 13.5268 149.356 14.8086C148.642 16.1574 147.913 16.5 147.5 16.5C147.087 16.5 146.358 16.1574 145.644 14.8086C144.965 13.5268 144.5 11.6525 144.5 9.5C144.5 7.3475 144.965 5.47318 145.644 4.19142C146.358 2.84255 147.087 2.5 147.5 2.5C147.913 2.5 148.642 2.84255 149.356 4.19142C150.035 5.47318 150.5 7.3475 150.5 9.5Z" stroke="white" stroke-width="3"/>
<path d="M109.5 9.5C109.5 11.6272 108.99 13.4799 108.243 14.7499C107.475 16.0545 106.632 16.5 106 16.5C105.368 16.5 104.525 16.0545 103.757 14.7499C103.01 13.4799 102.5 11.6272 102.5 9.5C102.5 7.37276 103.01 5.52007 103.757 4.25012C104.525 2.9455 105.368 2.5 106 2.5C106.632 2.5 107.475 2.9455 108.243 4.25012C108.99 5.52007 109.5 7.37276 109.5 9.5Z" stroke="white" stroke-width="3"/>
<path d="M172.5 9.5C172.5 11.6272 171.99 13.4799 171.243 14.7499C170.475 16.0545 169.632 16.5 169 16.5C168.368 16.5 167.525 16.0545 166.757 14.7499C166.01 13.4799 165.5 11.6272 165.5 9.5C165.5 7.37276 166.01 5.52007 166.757 4.25012C167.525 2.9455 168.368 2.5 169 2.5C169.632 2.5 170.475 2.9455 171.243 4.25012C171.99 5.52007 172.5 7.37276 172.5 9.5Z" stroke="white" stroke-width="3"/>
<path d="M150.5 34.5C150.5 36.6525 150.035 38.5268 149.356 39.8086C148.642 41.1574 147.913 41.5 147.5 41.5C147.087 41.5 146.358 41.1574 145.644 39.8086C144.965 38.5268 144.5 36.6525 144.5 34.5C144.5 32.3475 144.965 30.4732 145.644 29.1914C146.358 27.8426 147.087 27.5 147.5 27.5C147.913 27.5 148.642 27.8426 149.356 29.1914C150.035 30.4732 150.5 32.3475 150.5 34.5Z" stroke="white" stroke-width="3"/>
<path d="M150.5 59.5C150.5 61.6525 150.035 63.5268 149.356 64.8086C148.642 66.1574 147.913 66.5 147.5 66.5C147.087 66.5 146.358 66.1574 145.644 64.8086C144.965 63.5268 144.5 61.6525 144.5 59.5C144.5 57.3475 144.965 55.4732 145.644 54.1914C146.358 52.8426 147.087 52.5 147.5 52.5C147.913 52.5 148.642 52.8426 149.356 54.1914C150.035 55.4732 150.5 57.3475 150.5 59.5Z" stroke="white" stroke-width="3"/>
<path d="M109.5 59.5C109.5 61.6272 108.99 63.4799 108.243 64.7499C107.475 66.0545 106.632 66.5 106 66.5C105.368 66.5 104.525 66.0545 103.757 64.7499C103.01 63.4799 102.5 61.6272 102.5 59.5C102.5 57.3728 103.01 55.5201 103.757 54.2501C104.525 52.9455 105.368 52.5 106 52.5C106.632 52.5 107.475 52.9455 108.243 54.2501C108.99 55.5201 109.5 57.3728 109.5 59.5Z" stroke="white" stroke-width="3"/>
<path d="M172.5 59.5C172.5 61.6272 171.99 63.4799 171.243 64.7499C170.475 66.0545 169.632 66.5 169 66.5C168.368 66.5 167.525 66.0545 166.757 64.7499C166.01 63.4799 165.5 61.6272 165.5 59.5C165.5 57.3728 166.01 55.5201 166.757 54.2501C167.525 52.9455 168.368 52.5 169 52.5C169.632 52.5 170.475 52.9455 171.243 54.2501C171.99 55.5201 172.5 57.3728 172.5 59.5Z" stroke="white" stroke-width="3"/>
<path d="M21 30.2135C21 30.2135 25.7828 25.4945 25.7828 27.4936V42M25.7828 42L21 42M25.7828 42L30 42" stroke="white" stroke-width="3" stroke-linecap="round"/>
<path d="M29.5 9.5C29.5 11.6272 28.9897 13.4799 28.2426 14.7499C27.4752 16.0545 26.632 16.5 26 16.5C25.368 16.5 24.5248 16.0545 23.7574 14.7499C23.0103 13.4799 22.5 11.6272 22.5 9.5C22.5 7.37276 23.0103 5.52007 23.7574 4.25012C24.5248 2.9455 25.368 2.5 26 2.5C26.632 2.5 27.4752 2.9455 28.2426 4.25012C28.9897 5.52007 29.5 7.37276 29.5 9.5Z" stroke="white" stroke-width="3"/>
<path d="M29.5 59.5C29.5 61.6272 28.9897 63.4799 28.2426 64.7499C27.4752 66.0545 26.632 66.5 26 66.5C25.368 66.5 24.5248 66.0545 23.7574 64.7499C23.0103 63.4799 22.5 61.6272 22.5 59.5C22.5 57.3728 23.0103 55.5201 23.7574 54.2501C24.5248 52.9455 25.368 52.5 26 52.5C26.632 52.5 27.4752 52.9455 28.2426 54.2501C28.9897 55.5201 29.5 57.3728 29.5 59.5Z" stroke="white" stroke-width="3"/>
<path d="M21 30.2135C21 30.2135 25.7828 25.4945 25.7828 27.4936V42M25.7828 42L21 42M25.7828 42L30 42" stroke="white" stroke-width="3" stroke-linecap="round"/>
<path d="M29.5 9.5C29.5 11.6272 28.9897 13.4799 28.2426 14.7499C27.4752 16.0545 26.632 16.5 26 16.5C25.368 16.5 24.5248 16.0545 23.7574 14.7499C23.0103 13.4799 22.5 11.6272 22.5 9.5C22.5 7.37276 23.0103 5.52007 23.7574 4.25012C24.5248 2.9455 25.368 2.5 26 2.5C26.632 2.5 27.4752 2.9455 28.2426 4.25012C28.9897 5.52007 29.5 7.37276 29.5 9.5Z" stroke="white" stroke-width="3"/>
<path d="M29.5 59.5C29.5 61.6272 28.9897 63.4799 28.2426 64.7499C27.4752 66.0545 26.632 66.5 26 66.5C25.368 66.5 24.5248 66.0545 23.7574 64.7499C23.0103 63.4799 22.5 61.6272 22.5 59.5C22.5 57.3728 23.0103 55.5201 23.7574 54.2501C24.5248 52.9455 25.368 52.5 26 52.5C26.632 52.5 27.4752 52.9455 28.2426 54.2501C28.9897 55.5201 29.5 57.3728 29.5 59.5Z" stroke="white" stroke-width="3"/>
<path d="M43 5.21352C43 5.21352 47.2514 0.494547 47.2514 2.49356V17M47.2514 17L43 17M47.2514 17L51 17" stroke="#00D33B" stroke-opacity="0.15" stroke-width="3" stroke-linecap="round"/>
<path d="M21 30.2135C21 30.2135 25.7828 25.4945 25.7828 27.4936V42M25.7828 42L21 42M25.7828 42L30 42" stroke="#00D33B" stroke-opacity="0.15" stroke-width="3" stroke-linecap="round"/>
<path d="M43 81.4278C43 81.4278 47.2514 76.3942 47.2514 78.5265V94M47.2514 94L43 94M47.2514 94L51 94" stroke="#00D33B" stroke-opacity="0.15" stroke-width="3" stroke-linecap="round"/>
<path d="M21 106.428C21 106.428 25.7828 101.394 25.7828 103.526V119M25.7828 119L21 119M25.7828 119L30 119" stroke="#00D33B" stroke-opacity="0.15" stroke-width="3" stroke-linecap="round"/>
<path d="M85 5.21352C85 5.21352 89.2514 0.494547 89.2514 2.49356V17M89.2514 17L85 17M89.2514 17L93 17" stroke="#00D33B" stroke-opacity="0.15" stroke-width="3" stroke-linecap="round"/>
<path d="M63 30.2135C63 30.2135 67.2514 25.4945 67.2514 27.4936V42M67.2514 42L63 42M67.2514 42L71 42" stroke="#00D33B" stroke-opacity="0.15" stroke-width="3" stroke-linecap="round"/>
<path d="M85 81.4278C85 81.4278 89.2514 76.3942 89.2514 78.5265V94M89.2514 94L85 94M89.2514 94L93 94" stroke="#00D33B" stroke-opacity="0.15" stroke-width="3" stroke-linecap="round"/>
<path d="M63 106.428C63 106.428 67.2514 101.394 67.2514 103.526V119M67.2514 119L63 119M67.2514 119L71 119" stroke="#00D33B" stroke-opacity="0.15" stroke-width="3" stroke-linecap="round"/>
<path d="M123 5.21352C123 5.21352 127.251 0.494547 127.251 2.49356V17M127.251 17L123 17M127.251 17L131 17" stroke="#00D33B" stroke-opacity="0.15" stroke-width="3" stroke-linecap="round"/>
<path d="M186 5.21352C186 5.21352 190.251 0.494547 190.251 2.49356V17M190.251 17L186 17M190.251 17L194 17" stroke="#00D33B" stroke-opacity="0.15" stroke-width="3" stroke-linecap="round"/>
<path d="M123 30.2135C123 30.2135 127.251 25.4945 127.251 27.4936V42M127.251 42L123 42M127.251 42L131 42" stroke="#00D33B" stroke-opacity="0.15" stroke-width="3" stroke-linecap="round"/>
<path d="M164 30.2135C164 30.2135 168.783 25.4945 168.783 27.4936V42M168.783 42L164 42M168.783 42L173 42" stroke="#00D33B" stroke-opacity="0.15" stroke-width="3" stroke-linecap="round"/>
<path d="M123 54.4278C123 54.4278 127.251 49.3942 127.251 51.5265V67M127.251 67L123 67M127.251 67L131 67" stroke="#00D33B" stroke-opacity="0.15" stroke-width="3" stroke-linecap="round"/>
<path d="M102 30.2135C102 30.2135 106.783 25.4945 106.783 27.4936V42M106.783 42L102 42M106.783 42L111 42" stroke="#00D33B" stroke-opacity="0.15" stroke-width="3" stroke-linecap="round"/>
<path d="M123 81.4278C123 81.4278 127.251 76.3942 127.251 78.5265V94M127.251 94L123 94M127.251 94L131 94" stroke="#00D33B" stroke-opacity="0.15" stroke-width="3" stroke-linecap="round"/>
<path d="M186 81.4278C186 81.4278 190.251 76.3942 190.251 78.5265V94M190.251 94L186 94M190.251 94L194 94" stroke="#00D33B" stroke-opacity="0.15" stroke-width="3" stroke-linecap="round"/>
<path d="M123 106.428C123 106.428 127.251 101.394 127.251 103.526V119M127.251 119L123 119M127.251 119L131 119" stroke="#00D33B" stroke-opacity="0.15" stroke-width="3" stroke-linecap="round"/>
<path d="M164 106.428C164 106.428 168.783 101.394 168.783 103.526V119M168.783 119L164 119M168.783 119L173 119" stroke="#00D33B" stroke-opacity="0.15" stroke-width="3" stroke-linecap="round"/>
<path d="M102 106.428C102 106.428 106.783 101.394 106.783 103.526V119M106.783 119L102 119M106.783 119L111 119" stroke="#00D33B" stroke-opacity="0.15" stroke-width="3" stroke-linecap="round"/>
<path d="M228 5.21352C228 5.21352 232.251 0.494547 232.251 2.49356V17M232.251 17L228 17M232.251 17L236 17" stroke="#00D33B" stroke-opacity="0.15" stroke-width="3" stroke-linecap="round"/>
<path d="M206 30.2135C206 30.2135 210.251 25.4945 210.251 27.4936V42M210.251 42L206 42M210.251 42L214 42" stroke="#00D33B" stroke-opacity="0.15" stroke-width="3" stroke-linecap="round"/>
<path d="M228 81.4278C228 81.4278 232.251 76.3942 232.251 78.5265V94M232.251 94L228 94M232.251 94L236 94" stroke="#00D33B" stroke-opacity="0.15" stroke-width="3" stroke-linecap="round"/>
<path d="M206 106.428C206 106.428 210.251 101.394 210.251 103.526V119M210.251 119L206 119M210.251 119L214 119" stroke="#00D33B" stroke-opacity="0.15" stroke-width="3" stroke-linecap="round"/>
<path d="M109.5 85.5C109.5 87.6272 108.99 89.4799 108.243 90.7499C107.475 92.0545 106.632 92.5 106 92.5C105.368 92.5 104.525 92.0545 103.757 90.7499C103.01 89.4799 102.5 87.6272 102.5 85.5C102.5 83.3728 103.01 81.5201 103.757 80.2501C104.525 78.9455 105.368 78.5 106 78.5C106.632 78.5 107.475 78.9455 108.243 80.2501C108.99 81.5201 109.5 83.3728 109.5 85.5Z" stroke="#38CA20" stroke-opacity="0.04" stroke-width="3"/>
<path d="M150.5 111C150.5 113 150.041 114.737 149.375 115.921C148.682 117.153 147.96 117.5 147.5 117.5C147.04 117.5 146.318 117.153 145.625 115.921C144.959 114.737 144.5 113 144.5 111C144.5 109 144.959 107.263 145.625 106.079C146.318 104.847 147.04 104.5 147.5 104.5C147.96 104.5 148.682 104.847 149.375 106.079C150.041 107.263 150.5 109 150.5 111Z" stroke="#38CA20" stroke-opacity="0.04" stroke-width="3"/>
<path d="M234.5 34.5C234.5 36.6272 233.99 38.4799 233.243 39.7499C232.475 41.0545 231.632 41.5 231 41.5C230.368 41.5 229.525 41.0545 228.757 39.7499C228.01 38.4799 227.5 36.6272 227.5 34.5C227.5 32.3728 228.01 30.5201 228.757 29.2501C229.525 27.9455 230.368 27.5 231 27.5C231.632 27.5 232.475 27.9455 233.243 29.2501C233.99 30.5201 234.5 32.3728 234.5 34.5Z" stroke="#38CA20" stroke-opacity="0.04" stroke-width="3"/>
<path d="M7.5 9.5C7.5 11.6525 7.03488 13.5268 6.3563 14.8086C5.64219 16.1574 4.91324 16.5 4.5 16.5C4.08676 16.5 3.35781 16.1574 2.6437 14.8086C1.96512 13.5268 1.5 11.6525 1.5 9.5C1.5 7.3475 1.96512 5.47318 2.6437 4.19142C3.35781 2.84255 4.08676 2.5 4.5 2.5C4.91324 2.5 5.64219 2.84255 6.3563 4.19142C7.03488 5.47318 7.5 7.3475 7.5 9.5Z" stroke="#38CA20" stroke-opacity="0.04" stroke-width="3"/>
<path d="M7.5 34.5C7.5 36.6525 7.03488 38.5268 6.3563 39.8086C5.64219 41.1574 4.91324 41.5 4.5 41.5C4.08676 41.5 3.35781 41.1574 2.6437 39.8086C1.96512 38.5268 1.5 36.6525 1.5 34.5C1.5 32.3475 1.96512 30.4732 2.6437 29.1914C3.35781 27.8426 4.08676 27.5 4.5 27.5C4.91324 27.5 5.64219 27.8426 6.3563 29.1914C7.03488 30.4732 7.5 32.3475 7.5 34.5Z" stroke="#38CA20" stroke-opacity="0.04" stroke-width="3"/>
<path d="M7.5 59.5C7.5 61.6525 7.03488 63.5268 6.3563 64.8086C5.64219 66.1574 4.91324 66.5 4.5 66.5C4.08676 66.5 3.35781 66.1574 2.6437 64.8086C1.96512 63.5268 1.5 61.6525 1.5 59.5C1.5 57.3475 1.96512 55.4732 2.6437 54.1914C3.35781 52.8426 4.08676 52.5 4.5 52.5C4.91324 52.5 5.64219 52.8426 6.3563 54.1914C7.03488 55.4732 7.5 57.3475 7.5 59.5Z" stroke="#38CA20" stroke-opacity="0.04" stroke-width="3"/>
<path d="M7.5 9.5C7.5 11.6525 7.03488 13.5268 6.3563 14.8086C5.64219 16.1574 4.91324 16.5 4.5 16.5C4.08676 16.5 3.35781 16.1574 2.6437 14.8086C1.96512 13.5268 1.5 11.6525 1.5 9.5C1.5 7.3475 1.96512 5.47318 2.6437 4.19142C3.35781 2.84255 4.08676 2.5 4.5 2.5C4.91324 2.5 5.64219 2.84255 6.3563 4.19142C7.03488 5.47318 7.5 7.3475 7.5 9.5Z" stroke="#38CA20" stroke-opacity="0.04" stroke-width="3"/>
<path d="M7.5 34.5C7.5 36.6525 7.03488 38.5268 6.3563 39.8086C5.64219 41.1574 4.91324 41.5 4.5 41.5C4.08676 41.5 3.35781 41.1574 2.6437 39.8086C1.96512 38.5268 1.5 36.6525 1.5 34.5C1.5 32.3475 1.96512 30.4732 2.6437 29.1914C3.35781 27.8426 4.08676 27.5 4.5 27.5C4.91324 27.5 5.64219 27.8426 6.3563 29.1914C7.03488 30.4732 7.5 32.3475 7.5 34.5Z" stroke="#38CA20" stroke-opacity="0.04" stroke-width="3"/>
<path d="M7.5 59.5C7.5 61.6525 7.03488 63.5268 6.3563 64.8086C5.64219 66.1574 4.91324 66.5 4.5 66.5C4.08676 66.5 3.35781 66.1574 2.6437 64.8086C1.96512 63.5268 1.5 61.6525 1.5 59.5C1.5 57.3475 1.96512 55.4732 2.6437 54.1914C3.35781 52.8426 4.08676 52.5 4.5 52.5C4.91324 52.5 5.64219 52.8426 6.3563 54.1914C7.03488 55.4732 7.5 57.3475 7.5 59.5Z" stroke="#38CA20" stroke-opacity="0.04" stroke-width="3"/>
<path d="M7.5 9.5C7.5 11.6525 7.03488 13.5268 6.3563 14.8086C5.64219 16.1574 4.91324 16.5 4.5 16.5C4.08676 16.5 3.35781 16.1574 2.6437 14.8086C1.96512 13.5268 1.5 11.6525 1.5 9.5C1.5 7.3475 1.96512 5.47318 2.6437 4.19142C3.35781 2.84255 4.08676 2.5 4.5 2.5C4.91324 2.5 5.64219 2.84255 6.3563 4.19142C7.03488 5.47318 7.5 7.3475 7.5 9.5Z" stroke="#38CA20" stroke-opacity="0.04" stroke-width="3"/>
<path d="M29.5 9.5C29.5 11.6272 28.9897 13.4799 28.2426 14.7499C27.4752 16.0545 26.632 16.5 26 16.5C25.368 16.5 24.5248 16.0545 23.7574 14.7499C23.0103 13.4799 22.5 11.6272 22.5 9.5C22.5 7.37276 23.0103 5.52007 23.7574 4.25012C24.5248 2.9455 25.368 2.5 26 2.5C26.632 2.5 27.4752 2.9455 28.2426 4.25012C28.9897 5.52007 29.5 7.37276 29.5 9.5Z" stroke="#38CA20" stroke-opacity="0.04" stroke-width="3"/>
<path d="M49.5 34.5C49.5 36.6525 49.0349 38.5268 48.3563 39.8086C47.6422 41.1574 46.9132 41.5 46.5 41.5C46.0868 41.5 45.3578 41.1574 44.6437 39.8086C43.9651 38.5268 43.5 36.6525 43.5 34.5C43.5 32.3475 43.9651 30.4732 44.6437 29.1914C45.3578 27.8426 46.0868 27.5 46.5 27.5C46.9132 27.5 47.6422 27.8426 48.3563 29.1914C49.0349 30.4732 49.5 32.3475 49.5 34.5Z" stroke="#38CA20" stroke-opacity="0.04" stroke-width="3"/>
<path d="M7.5 34.5C7.5 36.6525 7.03488 38.5268 6.3563 39.8086C5.64219 41.1574 4.91324 41.5 4.5 41.5C4.08676 41.5 3.35781 41.1574 2.6437 39.8086C1.96512 38.5268 1.5 36.6525 1.5 34.5C1.5 32.3475 1.96512 30.4732 2.6437 29.1914C3.35781 27.8426 4.08676 27.5 4.5 27.5C4.91324 27.5 5.64219 27.8426 6.3563 29.1914C7.03488 30.4732 7.5 32.3475 7.5 34.5Z" stroke="#38CA20" stroke-opacity="0.04" stroke-width="3"/>
<path d="M7.5 85.5C7.5 87.6525 7.03488 89.5268 6.3563 90.8086C5.64219 92.1574 4.91324 92.5 4.5 92.5C4.08676 92.5 3.35781 92.1574 2.6437 90.8086C1.96512 89.5268 1.5 87.6525 1.5 85.5C1.5 83.3475 1.96512 81.4732 2.6437 80.1914C3.35781 78.8426 4.08676 78.5 4.5 78.5C4.91324 78.5 5.64219 78.8426 6.3563 80.1914C7.03488 81.4732 7.5 83.3475 7.5 85.5Z" stroke="#38CA20" stroke-opacity="0.04" stroke-width="3"/>
<path d="M29.5 85.5C29.5 87.6272 28.9897 89.4799 28.2426 90.7499C27.4752 92.0545 26.632 92.5 26 92.5C25.368 92.5 24.5248 92.0545 23.7574 90.7499C23.0103 89.4799 22.5 87.6272 22.5 85.5C22.5 83.3728 23.0103 81.5201 23.7574 80.2501C24.5248 78.9455 25.368 78.5 26 78.5C26.632 78.5 27.4752 78.9455 28.2426 80.2501C28.9897 81.5201 29.5 83.3728 29.5 85.5Z" stroke="#38CA20" stroke-opacity="0.04" stroke-width="3"/>
<path d="M49.5 111C49.5 113 49.0407 114.737 48.3746 115.921C47.6821 117.153 46.96 117.5 46.5 117.5C46.04 117.5 45.3179 117.153 44.6254 115.921C43.9593 114.737 43.5 113 43.5 111C43.5 109 43.9593 107.263 44.6254 106.079C45.3179 104.847 46.04 104.5 46.5 104.5C46.96 104.5 47.6821 104.847 48.3746 106.079C49.0407 107.263 49.5 109 49.5 111Z" stroke="#38CA20" stroke-opacity="0.04" stroke-width="3"/>
<path d="M7.5 111C7.5 113 7.04073 114.737 6.37462 115.921C5.68206 117.153 4.96005 117.5 4.5 117.5C4.03995 117.5 3.31794 117.153 2.62538 115.921C1.95927 114.737 1.5 113 1.5 111C1.5 109 1.95927 107.263 2.62538 106.079C3.31794 104.847 4.03995 104.5 4.5 104.5C4.96005 104.5 5.68206 104.847 6.37462 106.079C7.04073 107.263 7.5 109 7.5 111Z" stroke="#38CA20" stroke-opacity="0.04" stroke-width="3"/>
<path d="M49.5 59.5C49.5 61.6525 49.0349 63.5268 48.3563 64.8086C47.6422 66.1574 46.9132 66.5 46.5 66.5C46.0868 66.5 45.3578 66.1574 44.6437 64.8086C43.9651 63.5268 43.5 61.6525 43.5 59.5C43.5 57.3475 43.9651 55.4732 44.6437 54.1914C45.3578 52.8426 46.0868 52.5 46.5 52.5C46.9132 52.5 47.6422 52.8426 48.3563 54.1914C49.0349 55.4732 49.5 57.3475 49.5 59.5Z" stroke="#38CA20" stroke-opacity="0.04" stroke-width="3"/>
<path d="M7.5 59.5C7.5 61.6525 7.03488 63.5268 6.3563 64.8086C5.64219 66.1574 4.91324 66.5 4.5 66.5C4.08676 66.5 3.35781 66.1574 2.6437 64.8086C1.96512 63.5268 1.5 61.6525 1.5 59.5C1.5 57.3475 1.96512 55.4732 2.6437 54.1914C3.35781 52.8426 4.08676 52.5 4.5 52.5C4.91324 52.5 5.64219 52.8426 6.3563 54.1914C7.03488 55.4732 7.5 57.3475 7.5 59.5Z" stroke="#38CA20" stroke-opacity="0.04" stroke-width="3"/>
<path d="M29.5 59.5C29.5 61.6272 28.9897 63.4799 28.2426 64.7499C27.4752 66.0545 26.632 66.5 26 66.5C25.368 66.5 24.5248 66.0545 23.7574 64.7499C23.0103 63.4799 22.5 61.6272 22.5 59.5C22.5 57.3728 23.0103 55.5201 23.7574 54.2501C24.5248 52.9455 25.368 52.5 26 52.5C26.632 52.5 27.4752 52.9455 28.2426 54.2501C28.9897 55.5201 29.5 57.3728 29.5 59.5Z" stroke="#38CA20" stroke-opacity="0.04" stroke-width="3"/>
<path d="M71.5 9.5C71.5 11.6272 70.9897 13.4799 70.2426 14.7499C69.4752 16.0545 68.632 16.5 68 16.5C67.368 16.5 66.5248 16.0545 65.7574 14.7499C65.0103 13.4799 64.5 11.6272 64.5 9.5C64.5 7.37276 65.0103 5.52007 65.7574 4.25012C66.5248 2.9455 67.368 2.5 68 2.5C68.632 2.5 69.4752 2.9455 70.2426 4.25012C70.9897 5.52007 71.5 7.37276 71.5 9.5Z" stroke="#38CA20" stroke-opacity="0.04" stroke-width="3"/>
<path d="M91.5 34.5C91.5 36.6272 90.9897 38.4799 90.2426 39.7499C89.4752 41.0545 88.632 41.5 88 41.5C87.368 41.5 86.5248 41.0545 85.7574 39.7499C85.0103 38.4799 84.5 36.6272 84.5 34.5C84.5 32.3728 85.0103 30.5201 85.7574 29.2501C86.5248 27.9455 87.368 27.5 88 27.5C88.632 27.5 89.4752 27.9455 90.2426 29.2501C90.9897 30.5201 91.5 32.3728 91.5 34.5Z" stroke="#38CA20" stroke-opacity="0.04" stroke-width="3"/>
<path d="M71.5 85.5C71.5 87.6272 70.9897 89.4799 70.2426 90.7499C69.4752 92.0545 68.632 92.5 68 92.5C67.368 92.5 66.5248 92.0545 65.7574 90.7499C65.0103 89.4799 64.5 87.6272 64.5 85.5C64.5 83.3728 65.0103 81.5201 65.7574 80.2501C66.5248 78.9455 67.368 78.5 68 78.5C68.632 78.5 69.4752 78.9455 70.2426 80.2501C70.9897 81.5201 71.5 83.3728 71.5 85.5Z" stroke="#38CA20" stroke-opacity="0.04" stroke-width="3"/>
<path d="M91.5 111C91.5 112.973 90.9972 114.688 90.2635 115.862C89.5167 117.057 88.6769 117.5 88 117.5C87.3231 117.5 86.4833 117.057 85.7365 115.862C85.0028 114.688 84.5 112.973 84.5 111C84.5 109.027 85.0028 107.312 85.7365 106.138C86.4833 104.943 87.3231 104.5 88 104.5C88.6769 104.5 89.5167 104.943 90.2635 106.138C90.9972 107.312 91.5 109.027 91.5 111Z" stroke="#38CA20" stroke-opacity="0.04" stroke-width="3"/>
<path d="M91.5 59.5C91.5 61.6272 90.9897 63.4799 90.2426 64.7499C89.4752 66.0545 88.632 66.5 88 66.5C87.368 66.5 86.5248 66.0545 85.7574 64.7499C85.0103 63.4799 84.5 61.6272 84.5 59.5C84.5 57.3728 85.0103 55.5201 85.7574 54.2501C86.5248 52.9455 87.368 52.5 88 52.5C88.632 52.5 89.4752 52.9455 90.2426 54.2501C90.9897 55.5201 91.5 57.3728 91.5 59.5Z" stroke="#38CA20" stroke-opacity="0.04" stroke-width="3"/>
<path d="M71.5 59.5C71.5 61.6272 70.9897 63.4799 70.2426 64.7499C69.4752 66.0545 68.632 66.5 68 66.5C67.368 66.5 66.5248 66.0545 65.7574 64.7499C65.0103 63.4799 64.5 61.6272 64.5 59.5C64.5 57.3728 65.0103 55.5201 65.7574 54.2501C66.5248 52.9455 67.368 52.5 68 52.5C68.632 52.5 69.4752 52.9455 70.2426 54.2501C70.9897 55.5201 71.5 57.3728 71.5 59.5Z" stroke="#38CA20" stroke-opacity="0.04" stroke-width="3"/>
<path d="M150.5 9.5C150.5 11.6525 150.035 13.5268 149.356 14.8086C148.642 16.1574 147.913 16.5 147.5 16.5C147.087 16.5 146.358 16.1574 145.644 14.8086C144.965 13.5268 144.5 11.6525 144.5 9.5C144.5 7.3475 144.965 5.47318 145.644 4.19142C146.358 2.84255 147.087 2.5 147.5 2.5C147.913 2.5 148.642 2.84255 149.356 4.19142C150.035 5.47318 150.5 7.3475 150.5 9.5Z" stroke="#38CA20" stroke-opacity="0.04" stroke-width="3"/>
<path d="M109.5 9.5C109.5 11.6272 108.99 13.4799 108.243 14.7499C107.475 16.0545 106.632 16.5 106 16.5C105.368 16.5 104.525 16.0545 103.757 14.7499C103.01 13.4799 102.5 11.6272 102.5 9.5C102.5 7.37276 103.01 5.52007 103.757 4.25012C104.525 2.9455 105.368 2.5 106 2.5C106.632 2.5 107.475 2.9455 108.243 4.25012C108.99 5.52007 109.5 7.37276 109.5 9.5Z" stroke="#38CA20" stroke-opacity="0.04" stroke-width="3"/>
<path d="M172.5 9.5C172.5 11.6272 171.99 13.4799 171.243 14.7499C170.475 16.0545 169.632 16.5 169 16.5C168.368 16.5 167.525 16.0545 166.757 14.7499C166.01 13.4799 165.5 11.6272 165.5 9.5C165.5 7.37276 166.01 5.52007 166.757 4.25012C167.525 2.9455 168.368 2.5 169 2.5C169.632 2.5 170.475 2.9455 171.243 4.25012C171.99 5.52007 172.5 7.37276 172.5 9.5Z" stroke="#38CA20" stroke-opacity="0.04" stroke-width="3"/>
<path d="M192.5 34.5C192.5 36.6525 192.035 38.5268 191.356 39.8086C190.642 41.1574 189.913 41.5 189.5 41.5C189.087 41.5 188.358 41.1574 187.644 39.8086C186.965 38.5268 186.5 36.6525 186.5 34.5C186.5 32.3475 186.965 30.4732 187.644 29.1914C188.358 27.8426 189.087 27.5 189.5 27.5C189.913 27.5 190.642 27.8426 191.356 29.1914C192.035 30.4732 192.5 32.3475 192.5 34.5Z" stroke="#38CA20" stroke-opacity="0.04" stroke-width="3"/>
<path d="M150.5 34.5C150.5 36.6525 150.035 38.5268 149.356 39.8086C148.642 41.1574 147.913 41.5 147.5 41.5C147.087 41.5 146.358 41.1574 145.644 39.8086C144.965 38.5268 144.5 36.6525 144.5 34.5C144.5 32.3475 144.965 30.4732 145.644 29.1914C146.358 27.8426 147.087 27.5 147.5 27.5C147.913 27.5 148.642 27.8426 149.356 29.1914C150.035 30.4732 150.5 32.3475 150.5 34.5Z" stroke="#38CA20" stroke-opacity="0.04" stroke-width="3"/>
<path d="M150.5 85.5C150.5 87.6525 150.035 89.5268 149.356 90.8086C148.642 92.1574 147.913 92.5 147.5 92.5C147.087 92.5 146.358 92.1574 145.644 90.8086C144.965 89.5268 144.5 87.6525 144.5 85.5C144.5 83.3475 144.965 81.4732 145.644 80.1914C146.358 78.8426 147.087 78.5 147.5 78.5C147.913 78.5 148.642 78.8426 149.356 80.1914C150.035 81.4732 150.5 83.3475 150.5 85.5Z" stroke="#38CA20" stroke-opacity="0.04" stroke-width="3"/>
<path d="M172.5 85.5C172.5 87.6272 171.99 89.4799 171.243 90.7499C170.475 92.0545 169.632 92.5 169 92.5C168.368 92.5 167.525 92.0545 166.757 90.7499C166.01 89.4799 165.5 87.6272 165.5 85.5C165.5 83.3728 166.01 81.5201 166.757 80.2501C167.525 78.9455 168.368 78.5 169 78.5C169.632 78.5 170.475 78.9455 171.243 80.2501C171.99 81.5201 172.5 83.3728 172.5 85.5Z" stroke="#38CA20" stroke-opacity="0.04" stroke-width="3"/>
<path d="M192.5 111C192.5 113 192.041 114.737 191.375 115.921C190.682 117.153 189.96 117.5 189.5 117.5C189.04 117.5 188.318 117.153 187.625 115.921C186.959 114.737 186.5 113 186.5 111C186.5 109 186.959 107.263 187.625 106.079C188.318 104.847 189.04 104.5 189.5 104.5C189.96 104.5 190.682 104.847 191.375 106.079C192.041 107.263 192.5 109 192.5 111Z" stroke="#38CA20" stroke-opacity="0.04" stroke-width="3"/>
<path d="M192.5 59.5C192.5 61.6525 192.035 63.5268 191.356 64.8086C190.642 66.1574 189.913 66.5 189.5 66.5C189.087 66.5 188.358 66.1574 187.644 64.8086C186.965 63.5268 186.5 61.6525 186.5 59.5C186.5 57.3475 186.965 55.4732 187.644 54.1914C188.358 52.8426 189.087 52.5 189.5 52.5C189.913 52.5 190.642 52.8426 191.356 54.1914C192.035 55.4732 192.5 57.3475 192.5 59.5Z" stroke="#38CA20" stroke-opacity="0.04" stroke-width="3"/>
<path d="M150.5 59.5C150.5 61.6525 150.035 63.5268 149.356 64.8086C148.642 66.1574 147.913 66.5 147.5 66.5C147.087 66.5 146.358 66.1574 145.644 64.8086C144.965 63.5268 144.5 61.6525 144.5 59.5C144.5 57.3475 144.965 55.4732 145.644 54.1914C146.358 52.8426 147.087 52.5 147.5 52.5C147.913 52.5 148.642 52.8426 149.356 54.1914C150.035 55.4732 150.5 57.3475 150.5 59.5Z" stroke="#38CA20" stroke-opacity="0.04" stroke-width="3"/>
<path d="M109.5 59.5C109.5 61.6272 108.99 63.4799 108.243 64.7499C107.475 66.0545 106.632 66.5 106 66.5C105.368 66.5 104.525 66.0545 103.757 64.7499C103.01 63.4799 102.5 61.6272 102.5 59.5C102.5 57.3728 103.01 55.5201 103.757 54.2501C104.525 52.9455 105.368 52.5 106 52.5C106.632 52.5 107.475 52.9455 108.243 54.2501C108.99 55.5201 109.5 57.3728 109.5 59.5Z" stroke="#38CA20" stroke-opacity="0.04" stroke-width="3"/>
<path d="M172.5 59.5C172.5 61.6272 171.99 63.4799 171.243 64.7499C170.475 66.0545 169.632 66.5 169 66.5C168.368 66.5 167.525 66.0545 166.757 64.7499C166.01 63.4799 165.5 61.6272 165.5 59.5C165.5 57.3728 166.01 55.5201 166.757 54.2501C167.525 52.9455 168.368 52.5 169 52.5C169.632 52.5 170.475 52.9455 171.243 54.2501C171.99 55.5201 172.5 57.3728 172.5 59.5Z" stroke="#38CA20" stroke-opacity="0.04" stroke-width="3"/>
<path d="M214.5 9.5C214.5 11.6272 213.99 13.4799 213.243 14.7499C212.475 16.0545 211.632 16.5 211 16.5C210.368 16.5 209.525 16.0545 208.757 14.7499C208.01 13.4799 207.5 11.6272 207.5 9.5C207.5 7.37276 208.01 5.52007 208.757 4.25012C209.525 2.9455 210.368 2.5 211 2.5C211.632 2.5 212.475 2.9455 213.243 4.25012C213.99 5.52007 214.5 7.37276 214.5 9.5Z" stroke="#38CA20" stroke-opacity="0.04" stroke-width="3"/>
<path d="M214.5 85.5C214.5 87.6272 213.99 89.4799 213.243 90.7499C212.475 92.0545 211.632 92.5 211 92.5C210.368 92.5 209.525 92.0545 208.757 90.7499C208.01 89.4799 207.5 87.6272 207.5 85.5C207.5 83.3728 208.01 81.5201 208.757 80.2501C209.525 78.9455 210.368 78.5 211 78.5C211.632 78.5 212.475 78.9455 213.243 80.2501C213.99 81.5201 214.5 83.3728 214.5 85.5Z" stroke="#38CA20" stroke-opacity="0.04" stroke-width="3"/>
<path d="M234.5 111C234.5 112.973 233.997 114.688 233.264 115.862C232.517 117.057 231.677 117.5 231 117.5C230.323 117.5 229.483 117.057 228.736 115.862C228.003 114.688 227.5 112.973 227.5 111C227.5 109.027 228.003 107.312 228.736 106.138C229.483 104.943 230.323 104.5 231 104.5C231.677 104.5 232.517 104.943 233.264 106.138C233.997 107.312 234.5 109.027 234.5 111Z" stroke="#38CA20" stroke-opacity="0.04" stroke-width="3"/>
<path d="M234.5 59.5C234.5 61.6272 233.99 63.4799 233.243 64.7499C232.475 66.0545 231.632 66.5 231 66.5C230.368 66.5 229.525 66.0545 228.757 64.7499C228.01 63.4799 227.5 61.6272 227.5 59.5C227.5 57.3728 228.01 55.5201 228.757 54.2501C229.525 52.9455 230.368 52.5 231 52.5C231.632 52.5 232.475 52.9455 233.243 54.2501C233.99 55.5201 234.5 57.3728 234.5 59.5Z" stroke="#38CA20" stroke-opacity="0.04" stroke-width="3"/>
<path d="M214.5 59.5C214.5 61.6272 213.99 63.4799 213.243 64.7499C212.475 66.0545 211.632 66.5 211 66.5C210.368 66.5 209.525 66.0545 208.757 64.7499C208.01 63.4799 207.5 61.6272 207.5 59.5C207.5 57.3728 208.01 55.5201 208.757 54.2501C209.525 52.9455 210.368 52.5 211 52.5C211.632 52.5 212.475 52.9455 213.243 54.2501C213.99 55.5201 214.5 57.3728 214.5 59.5Z" stroke="#38CA20" stroke-opacity="0.04" stroke-width="3"/>
<path d="M123 132.214C123 132.214 127.251 127.495 127.251 129.494V144M127.251 144L123 144M127.251 144L131 144" stroke="white" stroke-width="3" stroke-linecap="round"/>
<path d="M123 157.214C123 157.214 127.251 152.495 127.251 154.494V169M127.251 169L123 169M127.251 169L131 169" stroke="white" stroke-width="3" stroke-linecap="round"/>
<path d="M164 157.214C164 157.214 168.783 152.495 168.783 154.494V169M168.783 169L164 169M168.783 169L173 169" stroke="white" stroke-width="3" stroke-linecap="round"/>
<path d="M123 181.428C123 181.428 127.251 176.394 127.251 178.526V194M127.251 194L123 194M127.251 194L131 194" stroke="white" stroke-width="3" stroke-linecap="round"/>
<path d="M102 157.214C102 157.214 106.783 152.495 106.783 154.494V169M106.783 169L102 169M106.783 169L111 169" stroke="white" stroke-width="3" stroke-linecap="round"/>
<path d="M150.5 136.5C150.5 138.653 150.035 140.527 149.356 141.809C148.642 143.157 147.913 143.5 147.5 143.5C147.087 143.5 146.358 143.157 145.644 141.809C144.965 140.527 144.5 138.653 144.5 136.5C144.5 134.347 144.965 132.473 145.644 131.191C146.358 129.843 147.087 129.5 147.5 129.5C147.913 129.5 148.642 129.843 149.356 131.191C150.035 132.473 150.5 134.347 150.5 136.5Z" stroke="white" stroke-width="3"/>
<path d="M109.5 136.5C109.5 138.627 108.99 140.48 108.243 141.75C107.475 143.054 106.632 143.5 106 143.5C105.368 143.5 104.525 143.054 103.757 141.75C103.01 140.48 102.5 138.627 102.5 136.5C102.5 134.373 103.01 132.52 103.757 131.25C104.525 129.946 105.368 129.5 106 129.5C106.632 129.5 107.475 129.946 108.243 131.25C108.99 132.52 109.5 134.373 109.5 136.5Z" stroke="white" stroke-width="3"/>
<path d="M172.5 136.5C172.5 138.627 171.99 140.48 171.243 141.75C170.475 143.054 169.632 143.5 169 143.5C168.368 143.5 167.525 143.054 166.757 141.75C166.01 140.48 165.5 138.627 165.5 136.5C165.5 134.373 166.01 132.52 166.757 131.25C167.525 129.946 168.368 129.5 169 129.5C169.632 129.5 170.475 129.946 171.243 131.25C171.99 132.52 172.5 134.373 172.5 136.5Z" stroke="white" stroke-width="3"/>
<path d="M150.5 161.5C150.5 163.653 150.035 165.527 149.356 166.809C148.642 168.157 147.913 168.5 147.5 168.5C147.087 168.5 146.358 168.157 145.644 166.809C144.965 165.527 144.5 163.653 144.5 161.5C144.5 159.347 144.965 157.473 145.644 156.191C146.358 154.843 147.087 154.5 147.5 154.5C147.913 154.5 148.642 154.843 149.356 156.191C150.035 157.473 150.5 159.347 150.5 161.5Z" stroke="white" stroke-width="3"/>
<path d="M150.5 186.5C150.5 188.653 150.035 190.527 149.356 191.809C148.642 193.157 147.913 193.5 147.5 193.5C147.087 193.5 146.358 193.157 145.644 191.809C144.965 190.527 144.5 188.653 144.5 186.5C144.5 184.347 144.965 182.473 145.644 181.191C146.358 179.843 147.087 179.5 147.5 179.5C147.913 179.5 148.642 179.843 149.356 181.191C150.035 182.473 150.5 184.347 150.5 186.5Z" stroke="white" stroke-width="3"/>
<path d="M109.5 186.5C109.5 188.627 108.99 190.48 108.243 191.75C107.475 193.054 106.632 193.5 106 193.5C105.368 193.5 104.525 193.054 103.757 191.75C103.01 190.48 102.5 188.627 102.5 186.5C102.5 184.373 103.01 182.52 103.757 181.25C104.525 179.946 105.368 179.5 106 179.5C106.632 179.5 107.475 179.946 108.243 181.25C108.99 182.52 109.5 184.373 109.5 186.5Z" stroke="white" stroke-width="3"/>
<path d="M172.5 186.5C172.5 188.627 171.99 190.48 171.243 191.75C170.475 193.054 169.632 193.5 169 193.5C168.368 193.5 167.525 193.054 166.757 191.75C166.01 190.48 165.5 188.627 165.5 186.5C165.5 184.373 166.01 182.52 166.757 181.25C167.525 179.946 168.368 179.5 169 179.5C169.632 179.5 170.475 179.946 171.243 181.25C171.99 182.52 172.5 184.373 172.5 186.5Z" stroke="white" stroke-width="3"/>
<path d="M123 132.214C123 132.214 127.251 127.495 127.251 129.494V144M127.251 144L123 144M127.251 144L131 144" stroke="white" stroke-width="3" stroke-linecap="round"/>
<path d="M123 157.214C123 157.214 127.251 152.495 127.251 154.494V169M127.251 169L123 169M127.251 169L131 169" stroke="white" stroke-width="3" stroke-linecap="round"/>
<path d="M164 157.214C164 157.214 168.783 152.495 168.783 154.494V169M168.783 169L164 169M168.783 169L173 169" stroke="white" stroke-width="3" stroke-linecap="round"/>
<path d="M123 181.428C123 181.428 127.251 176.394 127.251 178.526V194M127.251 194L123 194M127.251 194L131 194" stroke="white" stroke-width="3" stroke-linecap="round"/>
<path d="M102 157.214C102 157.214 106.783 152.495 106.783 154.494V169M106.783 169L102 169M106.783 169L111 169" stroke="white" stroke-width="3" stroke-linecap="round"/>
<path d="M150.5 136.5C150.5 138.653 150.035 140.527 149.356 141.809C148.642 143.157 147.913 143.5 147.5 143.5C147.087 143.5 146.358 143.157 145.644 141.809C144.965 140.527 144.5 138.653 144.5 136.5C144.5 134.347 144.965 132.473 145.644 131.191C146.358 129.843 147.087 129.5 147.5 129.5C147.913 129.5 148.642 129.843 149.356 131.191C150.035 132.473 150.5 134.347 150.5 136.5Z" stroke="white" stroke-width="3"/>
<path d="M109.5 136.5C109.5 138.627 108.99 140.48 108.243 141.75C107.475 143.054 106.632 143.5 106 143.5C105.368 143.5 104.525 143.054 103.757 141.75C103.01 140.48 102.5 138.627 102.5 136.5C102.5 134.373 103.01 132.52 103.757 131.25C104.525 129.946 105.368 129.5 106 129.5C106.632 129.5 107.475 129.946 108.243 131.25C108.99 132.52 109.5 134.373 109.5 136.5Z" stroke="white" stroke-width="3"/>
<path d="M172.5 136.5C172.5 138.627 171.99 140.48 171.243 141.75C170.475 143.054 169.632 143.5 169 143.5C168.368 143.5 167.525 143.054 166.757 141.75C166.01 140.48 165.5 138.627 165.5 136.5C165.5 134.373 166.01 132.52 166.757 131.25C167.525 129.946 168.368 129.5 169 129.5C169.632 129.5 170.475 129.946 171.243 131.25C171.99 132.52 172.5 134.373 172.5 136.5Z" stroke="white" stroke-width="3"/>
<path d="M150.5 161.5C150.5 163.653 150.035 165.527 149.356 166.809C148.642 168.157 147.913 168.5 147.5 168.5C147.087 168.5 146.358 168.157 145.644 166.809C144.965 165.527 144.5 163.653 144.5 161.5C144.5 159.347 144.965 157.473 145.644 156.191C146.358 154.843 147.087 154.5 147.5 154.5C147.913 154.5 148.642 154.843 149.356 156.191C150.035 157.473 150.5 159.347 150.5 161.5Z" stroke="white" stroke-width="3"/>
<path d="M150.5 186.5C150.5 188.653 150.035 190.527 149.356 191.809C148.642 193.157 147.913 193.5 147.5 193.5C147.087 193.5 146.358 193.157 145.644 191.809C144.965 190.527 144.5 188.653 144.5 186.5C144.5 184.347 144.965 182.473 145.644 181.191C146.358 179.843 147.087 179.5 147.5 179.5C147.913 179.5 148.642 179.843 149.356 181.191C150.035 182.473 150.5 184.347 150.5 186.5Z" stroke="white" stroke-width="3"/>
<path d="M109.5 186.5C109.5 188.627 108.99 190.48 108.243 191.75C107.475 193.054 106.632 193.5 106 193.5C105.368 193.5 104.525 193.054 103.757 191.75C103.01 190.48 102.5 188.627 102.5 186.5C102.5 184.373 103.01 182.52 103.757 181.25C104.525 179.946 105.368 179.5 106 179.5C106.632 179.5 107.475 179.946 108.243 181.25C108.99 182.52 109.5 184.373 109.5 186.5Z" stroke="white" stroke-width="3"/>
<path d="M172.5 186.5C172.5 188.627 171.99 190.48 171.243 191.75C170.475 193.054 169.632 193.5 169 193.5C168.368 193.5 167.525 193.054 166.757 191.75C166.01 190.48 165.5 188.627 165.5 186.5C165.5 184.373 166.01 182.52 166.757 181.25C167.525 179.946 168.368 179.5 169 179.5C169.632 179.5 170.475 179.946 171.243 181.25C171.99 182.52 172.5 184.373 172.5 186.5Z" stroke="white" stroke-width="3"/>
<path d="M21 157.214C21 157.214 25.7828 152.495 25.7828 154.494V169M25.7828 169L21 169M25.7828 169L30 169" stroke="white" stroke-width="3" stroke-linecap="round"/>
<path d="M29.5 136.5C29.5 138.627 28.9897 140.48 28.2426 141.75C27.4752 143.054 26.632 143.5 26 143.5C25.368 143.5 24.5248 143.054 23.7574 141.75C23.0103 140.48 22.5 138.627 22.5 136.5C22.5 134.373 23.0103 132.52 23.7574 131.25C24.5248 129.946 25.368 129.5 26 129.5C26.632 129.5 27.4752 129.946 28.2426 131.25C28.9897 132.52 29.5 134.373 29.5 136.5Z" stroke="white" stroke-width="3"/>
<path d="M29.5 186.5C29.5 188.627 28.9897 190.48 28.2426 191.75C27.4752 193.054 26.632 193.5 26 193.5C25.368 193.5 24.5248 193.054 23.7574 191.75C23.0103 190.48 22.5 188.627 22.5 186.5C22.5 184.373 23.0103 182.52 23.7574 181.25C24.5248 179.946 25.368 179.5 26 179.5C26.632 179.5 27.4752 179.946 28.2426 181.25C28.9897 182.52 29.5 184.373 29.5 186.5Z" stroke="white" stroke-width="3"/>
<path d="M21 157.214C21 157.214 25.7828 152.495 25.7828 154.494V169M25.7828 169L21 169M25.7828 169L30 169" stroke="white" stroke-width="3" stroke-linecap="round"/>
<path d="M29.5 136.5C29.5 138.627 28.9897 140.48 28.2426 141.75C27.4752 143.054 26.632 143.5 26 143.5C25.368 143.5 24.5248 143.054 23.7574 141.75C23.0103 140.48 22.5 138.627 22.5 136.5C22.5 134.373 23.0103 132.52 23.7574 131.25C24.5248 129.946 25.368 129.5 26 129.5C26.632 129.5 27.4752 129.946 28.2426 131.25C28.9897 132.52 29.5 134.373 29.5 136.5Z" stroke="white" stroke-width="3"/>
<path d="M29.5 186.5C29.5 188.627 28.9897 190.48 28.2426 191.75C27.4752 193.054 26.632 193.5 26 193.5C25.368 193.5 24.5248 193.054 23.7574 191.75C23.0103 190.48 22.5 188.627 22.5 186.5C22.5 184.373 23.0103 182.52 23.7574 181.25C24.5248 179.946 25.368 179.5 26 179.5C26.632 179.5 27.4752 179.946 28.2426 181.25C28.9897 182.52 29.5 184.373 29.5 186.5Z" stroke="white" stroke-width="3"/>
<path d="M43 132.214C43 132.214 47.2514 127.495 47.2514 129.494V144M47.2514 144L43 144M47.2514 144L51 144" stroke="#00D33B" stroke-opacity="0.15" stroke-width="3" stroke-linecap="round"/>
<path d="M21 157.214C21 157.214 25.7828 152.495 25.7828 154.494V169M25.7828 169L21 169M25.7828 169L30 169" stroke="#00D33B" stroke-opacity="0.15" stroke-width="3" stroke-linecap="round"/>
<path d="M43 208.428C43 208.428 47.2514 203.394 47.2514 205.526V221M47.2514 221L43 221M47.2514 221L51 221" stroke="#00D33B" stroke-opacity="0.15" stroke-width="3" stroke-linecap="round"/>
<path d="M21 233.428C21 233.428 25.7828 228.394 25.7828 230.526V246M25.7828 246L21 246M25.7828 246L30 246" stroke="#00D33B" stroke-opacity="0.15" stroke-width="3" stroke-linecap="round"/>
<path d="M85 132.214C85 132.214 89.2514 127.495 89.2514 129.494V144M89.2514 144L85 144M89.2514 144L93 144" stroke="#00D33B" stroke-opacity="0.15" stroke-width="3" stroke-linecap="round"/>
<path d="M63 157.214C63 157.214 67.2514 152.495 67.2514 154.494V169M67.2514 169L63 169M67.2514 169L71 169" stroke="#00D33B" stroke-opacity="0.15" stroke-width="3" stroke-linecap="round"/>
<path d="M85 208.428C85 208.428 89.2514 203.394 89.2514 205.526V221M89.2514 221L85 221M89.2514 221L93 221" stroke="#00D33B" stroke-opacity="0.15" stroke-width="3" stroke-linecap="round"/>
<path d="M63 233.428C63 233.428 67.2514 228.394 67.2514 230.526V246M67.2514 246L63 246M67.2514 246L71 246" stroke="#00D33B" stroke-opacity="0.15" stroke-width="3" stroke-linecap="round"/>
<path d="M123 132.214C123 132.214 127.251 127.495 127.251 129.494V144M127.251 144L123 144M127.251 144L131 144" stroke="#00D33B" stroke-opacity="0.15" stroke-width="3" stroke-linecap="round"/>
<path d="M186 132.214C186 132.214 190.251 127.495 190.251 129.494V144M190.251 144L186 144M190.251 144L194 144" stroke="#00D33B" stroke-opacity="0.15" stroke-width="3" stroke-linecap="round"/>
<path d="M123 157.214C123 157.214 127.251 152.495 127.251 154.494V169M127.251 169L123 169M127.251 169L131 169" stroke="#00D33B" stroke-opacity="0.15" stroke-width="3" stroke-linecap="round"/>
<path d="M164 157.214C164 157.214 168.783 152.495 168.783 154.494V169M168.783 169L164 169M168.783 169L173 169" stroke="#00D33B" stroke-opacity="0.15" stroke-width="3" stroke-linecap="round"/>
<path d="M123 181.428C123 181.428 127.251 176.394 127.251 178.526V194M127.251 194L123 194M127.251 194L131 194" stroke="#00D33B" stroke-opacity="0.15" stroke-width="3" stroke-linecap="round"/>
<path d="M102 157.214C102 157.214 106.783 152.495 106.783 154.494V169M106.783 169L102 169M106.783 169L111 169" stroke="#00D33B" stroke-opacity="0.15" stroke-width="3" stroke-linecap="round"/>
<path d="M123 208.428C123 208.428 127.251 203.394 127.251 205.526V221M127.251 221L123 221M127.251 221L131 221" stroke="#00D33B" stroke-opacity="0.15" stroke-width="3" stroke-linecap="round"/>
<path d="M186 208.428C186 208.428 190.251 203.394 190.251 205.526V221M190.251 221L186 221M190.251 221L194 221" stroke="#00D33B" stroke-opacity="0.15" stroke-width="3" stroke-linecap="round"/>
<path d="M123 233.428C123 233.428 127.251 228.394 127.251 230.526V246M127.251 246L123 246M127.251 246L131 246" stroke="#00D33B" stroke-opacity="0.15" stroke-width="3" stroke-linecap="round"/>
<path d="M164 233.428C164 233.428 168.783 228.394 168.783 230.526V246M168.783 246L164 246M168.783 246L173 246" stroke="#00D33B" stroke-opacity="0.15" stroke-width="3" stroke-linecap="round"/>
<path d="M102 233.428C102 233.428 106.783 228.394 106.783 230.526V246M106.783 246L102 246M106.783 246L111 246" stroke="#00D33B" stroke-opacity="0.15" stroke-width="3" stroke-linecap="round"/>
<path d="M228 132.214C228 132.214 232.251 127.495 232.251 129.494V144M232.251 144L228 144M232.251 144L236 144" stroke="#00D33B" stroke-opacity="0.15" stroke-width="3" stroke-linecap="round"/>
<path d="M206 157.214C206 157.214 210.251 152.495 210.251 154.494V169M210.251 169L206 169M210.251 169L214 169" stroke="#00D33B" stroke-opacity="0.15" stroke-width="3" stroke-linecap="round"/>
<path d="M228 208.428C228 208.428 232.251 203.394 232.251 205.526V221M232.251 221L228 221M232.251 221L236 221" stroke="#00D33B" stroke-opacity="0.15" stroke-width="3" stroke-linecap="round"/>
<path d="M206 233.428C206 233.428 210.251 228.394 210.251 230.526V246M210.251 246L206 246M210.251 246L214 246" stroke="#00D33B" stroke-opacity="0.15" stroke-width="3" stroke-linecap="round"/>
<path d="M109.5 212.5C109.5 214.627 108.99 216.48 108.243 217.75C107.475 219.054 106.632 219.5 106 219.5C105.368 219.5 104.525 219.054 103.757 217.75C103.01 216.48 102.5 214.627 102.5 212.5C102.5 210.373 103.01 208.52 103.757 207.25C104.525 205.946 105.368 205.5 106 205.5C106.632 205.5 107.475 205.946 108.243 207.25C108.99 208.52 109.5 210.373 109.5 212.5Z" stroke="#38CA20" stroke-opacity="0.04" stroke-width="3"/>
<path d="M150.5 238C150.5 240 150.041 241.737 149.375 242.921C148.682 244.153 147.96 244.5 147.5 244.5C147.04 244.5 146.318 244.153 145.625 242.921C144.959 241.737 144.5 240 144.5 238C144.5 236 144.959 234.263 145.625 233.079C146.318 231.847 147.04 231.5 147.5 231.5C147.96 231.5 148.682 231.847 149.375 233.079C150.041 234.263 150.5 236 150.5 238Z" stroke="#38CA20" stroke-opacity="0.04" stroke-width="3"/>
<path d="M234.5 161.5C234.5 163.627 233.99 165.48 233.243 166.75C232.475 168.054 231.632 168.5 231 168.5C230.368 168.5 229.525 168.054 228.757 166.75C228.01 165.48 227.5 163.627 227.5 161.5C227.5 159.373 228.01 157.52 228.757 156.25C229.525 154.946 230.368 154.5 231 154.5C231.632 154.5 232.475 154.946 233.243 156.25C233.99 157.52 234.5 159.373 234.5 161.5Z" stroke="#38CA20" stroke-opacity="0.04" stroke-width="3"/>
<path d="M7.5 136.5C7.5 138.653 7.03488 140.527 6.3563 141.809C5.64219 143.157 4.91324 143.5 4.5 143.5C4.08676 143.5 3.35781 143.157 2.6437 141.809C1.96512 140.527 1.5 138.653 1.5 136.5C1.5 134.347 1.96512 132.473 2.6437 131.191C3.35781 129.843 4.08676 129.5 4.5 129.5C4.91324 129.5 5.64219 129.843 6.3563 131.191C7.03488 132.473 7.5 134.347 7.5 136.5Z" stroke="#38CA20" stroke-opacity="0.04" stroke-width="3"/>
<path d="M7.5 161.5C7.5 163.653 7.03488 165.527 6.3563 166.809C5.64219 168.157 4.91324 168.5 4.5 168.5C4.08676 168.5 3.35781 168.157 2.6437 166.809C1.96512 165.527 1.5 163.653 1.5 161.5C1.5 159.347 1.96512 157.473 2.6437 156.191C3.35781 154.843 4.08676 154.5 4.5 154.5C4.91324 154.5 5.64219 154.843 6.3563 156.191C7.03488 157.473 7.5 159.347 7.5 161.5Z" stroke="#38CA20" stroke-opacity="0.04" stroke-width="3"/>
<path d="M7.5 186.5C7.5 188.653 7.03488 190.527 6.3563 191.809C5.64219 193.157 4.91324 193.5 4.5 193.5C4.08676 193.5 3.35781 193.157 2.6437 191.809C1.96512 190.527 1.5 188.653 1.5 186.5C1.5 184.347 1.96512 182.473 2.6437 181.191C3.35781 179.843 4.08676 179.5 4.5 179.5C4.91324 179.5 5.64219 179.843 6.3563 181.191C7.03488 182.473 7.5 184.347 7.5 186.5Z" stroke="#38CA20" stroke-opacity="0.04" stroke-width="3"/>
<path d="M7.5 136.5C7.5 138.653 7.03488 140.527 6.3563 141.809C5.64219 143.157 4.91324 143.5 4.5 143.5C4.08676 143.5 3.35781 143.157 2.6437 141.809C1.96512 140.527 1.5 138.653 1.5 136.5C1.5 134.347 1.96512 132.473 2.6437 131.191C3.35781 129.843 4.08676 129.5 4.5 129.5C4.91324 129.5 5.64219 129.843 6.3563 131.191C7.03488 132.473 7.5 134.347 7.5 136.5Z" stroke="#38CA20" stroke-opacity="0.04" stroke-width="3"/>
<path d="M7.5 161.5C7.5 163.653 7.03488 165.527 6.3563 166.809C5.64219 168.157 4.91324 168.5 4.5 168.5C4.08676 168.5 3.35781 168.157 2.6437 166.809C1.96512 165.527 1.5 163.653 1.5 161.5C1.5 159.347 1.96512 157.473 2.6437 156.191C3.35781 154.843 4.08676 154.5 4.5 154.5C4.91324 154.5 5.64219 154.843 6.3563 156.191C7.03488 157.473 7.5 159.347 7.5 161.5Z" stroke="#38CA20" stroke-opacity="0.04" stroke-width="3"/>
<path d="M7.5 186.5C7.5 188.653 7.03488 190.527 6.3563 191.809C5.64219 193.157 4.91324 193.5 4.5 193.5C4.08676 193.5 3.35781 193.157 2.6437 191.809C1.96512 190.527 1.5 188.653 1.5 186.5C1.5 184.347 1.96512 182.473 2.6437 181.191C3.35781 179.843 4.08676 179.5 4.5 179.5C4.91324 179.5 5.64219 179.843 6.3563 181.191C7.03488 182.473 7.5 184.347 7.5 186.5Z" stroke="#38CA20" stroke-opacity="0.04" stroke-width="3"/>
<path d="M7.5 136.5C7.5 138.653 7.03488 140.527 6.3563 141.809C5.64219 143.157 4.91324 143.5 4.5 143.5C4.08676 143.5 3.35781 143.157 2.6437 141.809C1.96512 140.527 1.5 138.653 1.5 136.5C1.5 134.347 1.96512 132.473 2.6437 131.191C3.35781 129.843 4.08676 129.5 4.5 129.5C4.91324 129.5 5.64219 129.843 6.3563 131.191C7.03488 132.473 7.5 134.347 7.5 136.5Z" stroke="#38CA20" stroke-opacity="0.04" stroke-width="3"/>
<path d="M29.5 136.5C29.5 138.627 28.9897 140.48 28.2426 141.75C27.4752 143.054 26.632 143.5 26 143.5C25.368 143.5 24.5248 143.054 23.7574 141.75C23.0103 140.48 22.5 138.627 22.5 136.5C22.5 134.373 23.0103 132.52 23.7574 131.25C24.5248 129.946 25.368 129.5 26 129.5C26.632 129.5 27.4752 129.946 28.2426 131.25C28.9897 132.52 29.5 134.373 29.5 136.5Z" stroke="#38CA20" stroke-opacity="0.04" stroke-width="3"/>
<path d="M49.5 161.5C49.5 163.653 49.0349 165.527 48.3563 166.809C47.6422 168.157 46.9132 168.5 46.5 168.5C46.0868 168.5 45.3578 168.157 44.6437 166.809C43.9651 165.527 43.5 163.653 43.5 161.5C43.5 159.347 43.9651 157.473 44.6437 156.191C45.3578 154.843 46.0868 154.5 46.5 154.5C46.9132 154.5 47.6422 154.843 48.3563 156.191C49.0349 157.473 49.5 159.347 49.5 161.5Z" stroke="#38CA20" stroke-opacity="0.04" stroke-width="3"/>
<path d="M7.5 161.5C7.5 163.653 7.03488 165.527 6.3563 166.809C5.64219 168.157 4.91324 168.5 4.5 168.5C4.08676 168.5 3.35781 168.157 2.6437 166.809C1.96512 165.527 1.5 163.653 1.5 161.5C1.5 159.347 1.96512 157.473 2.6437 156.191C3.35781 154.843 4.08676 154.5 4.5 154.5C4.91324 154.5 5.64219 154.843 6.3563 156.191C7.03488 157.473 7.5 159.347 7.5 161.5Z" stroke="#38CA20" stroke-opacity="0.04" stroke-width="3"/>
<path d="M7.5 212.5C7.5 214.653 7.03488 216.527 6.3563 217.809C5.64219 219.157 4.91324 219.5 4.5 219.5C4.08676 219.5 3.35781 219.157 2.6437 217.809C1.96512 216.527 1.5 214.653 1.5 212.5C1.5 210.347 1.96512 208.473 2.6437 207.191C3.35781 205.843 4.08676 205.5 4.5 205.5C4.91324 205.5 5.64219 205.843 6.3563 207.191C7.03488 208.473 7.5 210.347 7.5 212.5Z" stroke="#38CA20" stroke-opacity="0.04" stroke-width="3"/>
<path d="M29.5 212.5C29.5 214.627 28.9897 216.48 28.2426 217.75C27.4752 219.054 26.632 219.5 26 219.5C25.368 219.5 24.5248 219.054 23.7574 217.75C23.0103 216.48 22.5 214.627 22.5 212.5C22.5 210.373 23.0103 208.52 23.7574 207.25C24.5248 205.946 25.368 205.5 26 205.5C26.632 205.5 27.4752 205.946 28.2426 207.25C28.9897 208.52 29.5 210.373 29.5 212.5Z" stroke="#38CA20" stroke-opacity="0.04" stroke-width="3"/>
<path d="M49.5 238C49.5 240 49.0407 241.737 48.3746 242.921C47.6821 244.153 46.96 244.5 46.5 244.5C46.04 244.5 45.3179 244.153 44.6254 242.921C43.9593 241.737 43.5 240 43.5 238C43.5 236 43.9593 234.263 44.6254 233.079C45.3179 231.847 46.04 231.5 46.5 231.5C46.96 231.5 47.6821 231.847 48.3746 233.079C49.0407 234.263 49.5 236 49.5 238Z" stroke="#38CA20" stroke-opacity="0.04" stroke-width="3"/>
<path d="M7.5 238C7.5 240 7.04073 241.737 6.37462 242.921C5.68206 244.153 4.96005 244.5 4.5 244.5C4.03995 244.5 3.31794 244.153 2.62538 242.921C1.95927 241.737 1.5 240 1.5 238C1.5 236 1.95927 234.263 2.62538 233.079C3.31794 231.847 4.03995 231.5 4.5 231.5C4.96005 231.5 5.68206 231.847 6.37462 233.079C7.04073 234.263 7.5 236 7.5 238Z" stroke="#38CA20" stroke-opacity="0.04" stroke-width="3"/>
<path d="M49.5 186.5C49.5 188.653 49.0349 190.527 48.3563 191.809C47.6422 193.157 46.9132 193.5 46.5 193.5C46.0868 193.5 45.3578 193.157 44.6437 191.809C43.9651 190.527 43.5 188.653 43.5 186.5C43.5 184.347 43.9651 182.473 44.6437 181.191C45.3578 179.843 46.0868 179.5 46.5 179.5C46.9132 179.5 47.6422 179.843 48.3563 181.191C49.0349 182.473 49.5 184.347 49.5 186.5Z" stroke="#38CA20" stroke-opacity="0.04" stroke-width="3"/>
<path d="M7.5 186.5C7.5 188.653 7.03488 190.527 6.3563 191.809C5.64219 193.157 4.91324 193.5 4.5 193.5C4.08676 193.5 3.35781 193.157 2.6437 191.809C1.96512 190.527 1.5 188.653 1.5 186.5C1.5 184.347 1.96512 182.473 2.6437 181.191C3.35781 179.843 4.08676 179.5 4.5 179.5C4.91324 179.5 5.64219 179.843 6.3563 181.191C7.03488 182.473 7.5 184.347 7.5 186.5Z" stroke="#38CA20" stroke-opacity="0.04" stroke-width="3"/>
<path d="M29.5 186.5C29.5 188.627 28.9897 190.48 28.2426 191.75C27.4752 193.054 26.632 193.5 26 193.5C25.368 193.5 24.5248 193.054 23.7574 191.75C23.0103 190.48 22.5 188.627 22.5 186.5C22.5 184.373 23.0103 182.52 23.7574 181.25C24.5248 179.946 25.368 179.5 26 179.5C26.632 179.5 27.4752 179.946 28.2426 181.25C28.9897 182.52 29.5 184.373 29.5 186.5Z" stroke="#38CA20" stroke-opacity="0.04" stroke-width="3"/>
<path d="M71.5 136.5C71.5 138.627 70.9897 140.48 70.2426 141.75C69.4752 143.054 68.632 143.5 68 143.5C67.368 143.5 66.5248 143.054 65.7574 141.75C65.0103 140.48 64.5 138.627 64.5 136.5C64.5 134.373 65.0103 132.52 65.7574 131.25C66.5248 129.946 67.368 129.5 68 129.5C68.632 129.5 69.4752 129.946 70.2426 131.25C70.9897 132.52 71.5 134.373 71.5 136.5Z" stroke="#38CA20" stroke-opacity="0.04" stroke-width="3"/>
<path d="M91.5 161.5C91.5 163.627 90.9897 165.48 90.2426 166.75C89.4752 168.054 88.632 168.5 88 168.5C87.368 168.5 86.5248 168.054 85.7574 166.75C85.0103 165.48 84.5 163.627 84.5 161.5C84.5 159.373 85.0103 157.52 85.7574 156.25C86.5248 154.946 87.368 154.5 88 154.5C88.632 154.5 89.4752 154.946 90.2426 156.25C90.9897 157.52 91.5 159.373 91.5 161.5Z" stroke="#38CA20" stroke-opacity="0.04" stroke-width="3"/>
<path d="M71.5 212.5C71.5 214.627 70.9897 216.48 70.2426 217.75C69.4752 219.054 68.632 219.5 68 219.5C67.368 219.5 66.5248 219.054 65.7574 217.75C65.0103 216.48 64.5 214.627 64.5 212.5C64.5 210.373 65.0103 208.52 65.7574 207.25C66.5248 205.946 67.368 205.5 68 205.5C68.632 205.5 69.4752 205.946 70.2426 207.25C70.9897 208.52 71.5 210.373 71.5 212.5Z" stroke="#38CA20" stroke-opacity="0.04" stroke-width="3"/>
<path d="M91.5 238C91.5 239.973 90.9972 241.688 90.2635 242.862C89.5167 244.057 88.6769 244.5 88 244.5C87.3231 244.5 86.4833 244.057 85.7365 242.862C85.0028 241.688 84.5 239.973 84.5 238C84.5 236.027 85.0028 234.312 85.7365 233.138C86.4833 231.943 87.3231 231.5 88 231.5C88.6769 231.5 89.5167 231.943 90.2635 233.138C90.9972 234.312 91.5 236.027 91.5 238Z" stroke="#38CA20" stroke-opacity="0.04" stroke-width="3"/>
<path d="M91.5 186.5C91.5 188.627 90.9897 190.48 90.2426 191.75C89.4752 193.054 88.632 193.5 88 193.5C87.368 193.5 86.5248 193.054 85.7574 191.75C85.0103 190.48 84.5 188.627 84.5 186.5C84.5 184.373 85.0103 182.52 85.7574 181.25C86.5248 179.946 87.368 179.5 88 179.5C88.632 179.5 89.4752 179.946 90.2426 181.25C90.9897 182.52 91.5 184.373 91.5 186.5Z" stroke="#38CA20" stroke-opacity="0.04" stroke-width="3"/>
<path d="M71.5 186.5C71.5 188.627 70.9897 190.48 70.2426 191.75C69.4752 193.054 68.632 193.5 68 193.5C67.368 193.5 66.5248 193.054 65.7574 191.75C65.0103 190.48 64.5 188.627 64.5 186.5C64.5 184.373 65.0103 182.52 65.7574 181.25C66.5248 179.946 67.368 179.5 68 179.5C68.632 179.5 69.4752 179.946 70.2426 181.25C70.9897 182.52 71.5 184.373 71.5 186.5Z" stroke="#38CA20" stroke-opacity="0.04" stroke-width="3"/>
<path d="M150.5 136.5C150.5 138.653 150.035 140.527 149.356 141.809C148.642 143.157 147.913 143.5 147.5 143.5C147.087 143.5 146.358 143.157 145.644 141.809C144.965 140.527 144.5 138.653 144.5 136.5C144.5 134.347 144.965 132.473 145.644 131.191C146.358 129.843 147.087 129.5 147.5 129.5C147.913 129.5 148.642 129.843 149.356 131.191C150.035 132.473 150.5 134.347 150.5 136.5Z" stroke="#38CA20" stroke-opacity="0.04" stroke-width="3"/>
<path d="M109.5 136.5C109.5 138.627 108.99 140.48 108.243 141.75C107.475 143.054 106.632 143.5 106 143.5C105.368 143.5 104.525 143.054 103.757 141.75C103.01 140.48 102.5 138.627 102.5 136.5C102.5 134.373 103.01 132.52 103.757 131.25C104.525 129.946 105.368 129.5 106 129.5C106.632 129.5 107.475 129.946 108.243 131.25C108.99 132.52 109.5 134.373 109.5 136.5Z" stroke="#38CA20" stroke-opacity="0.04" stroke-width="3"/>
<path d="M172.5 136.5C172.5 138.627 171.99 140.48 171.243 141.75C170.475 143.054 169.632 143.5 169 143.5C168.368 143.5 167.525 143.054 166.757 141.75C166.01 140.48 165.5 138.627 165.5 136.5C165.5 134.373 166.01 132.52 166.757 131.25C167.525 129.946 168.368 129.5 169 129.5C169.632 129.5 170.475 129.946 171.243 131.25C171.99 132.52 172.5 134.373 172.5 136.5Z" stroke="#38CA20" stroke-opacity="0.04" stroke-width="3"/>
<path d="M192.5 161.5C192.5 163.653 192.035 165.527 191.356 166.809C190.642 168.157 189.913 168.5 189.5 168.5C189.087 168.5 188.358 168.157 187.644 166.809C186.965 165.527 186.5 163.653 186.5 161.5C186.5 159.347 186.965 157.473 187.644 156.191C188.358 154.843 189.087 154.5 189.5 154.5C189.913 154.5 190.642 154.843 191.356 156.191C192.035 157.473 192.5 159.347 192.5 161.5Z" stroke="#38CA20" stroke-opacity="0.04" stroke-width="3"/>
<path d="M150.5 161.5C150.5 163.653 150.035 165.527 149.356 166.809C148.642 168.157 147.913 168.5 147.5 168.5C147.087 168.5 146.358 168.157 145.644 166.809C144.965 165.527 144.5 163.653 144.5 161.5C144.5 159.347 144.965 157.473 145.644 156.191C146.358 154.843 147.087 154.5 147.5 154.5C147.913 154.5 148.642 154.843 149.356 156.191C150.035 157.473 150.5 159.347 150.5 161.5Z" stroke="#38CA20" stroke-opacity="0.04" stroke-width="3"/>
<path d="M150.5 212.5C150.5 214.653 150.035 216.527 149.356 217.809C148.642 219.157 147.913 219.5 147.5 219.5C147.087 219.5 146.358 219.157 145.644 217.809C144.965 216.527 144.5 214.653 144.5 212.5C144.5 210.347 144.965 208.473 145.644 207.191C146.358 205.843 147.087 205.5 147.5 205.5C147.913 205.5 148.642 205.843 149.356 207.191C150.035 208.473 150.5 210.347 150.5 212.5Z" stroke="#38CA20" stroke-opacity="0.04" stroke-width="3"/>
<path d="M172.5 212.5C172.5 214.627 171.99 216.48 171.243 217.75C170.475 219.054 169.632 219.5 169 219.5C168.368 219.5 167.525 219.054 166.757 217.75C166.01 216.48 165.5 214.627 165.5 212.5C165.5 210.373 166.01 208.52 166.757 207.25C167.525 205.946 168.368 205.5 169 205.5C169.632 205.5 170.475 205.946 171.243 207.25C171.99 208.52 172.5 210.373 172.5 212.5Z" stroke="#38CA20" stroke-opacity="0.04" stroke-width="3"/>
<path d="M192.5 238C192.5 240 192.041 241.737 191.375 242.921C190.682 244.153 189.96 244.5 189.5 244.5C189.04 244.5 188.318 244.153 187.625 242.921C186.959 241.737 186.5 240 186.5 238C186.5 236 186.959 234.263 187.625 233.079C188.318 231.847 189.04 231.5 189.5 231.5C189.96 231.5 190.682 231.847 191.375 233.079C192.041 234.263 192.5 236 192.5 238Z" stroke="#38CA20" stroke-opacity="0.04" stroke-width="3"/>
<path d="M192.5 186.5C192.5 188.653 192.035 190.527 191.356 191.809C190.642 193.157 189.913 193.5 189.5 193.5C189.087 193.5 188.358 193.157 187.644 191.809C186.965 190.527 186.5 188.653 186.5 186.5C186.5 184.347 186.965 182.473 187.644 181.191C188.358 179.843 189.087 179.5 189.5 179.5C189.913 179.5 190.642 179.843 191.356 181.191C192.035 182.473 192.5 184.347 192.5 186.5Z" stroke="#38CA20" stroke-opacity="0.04" stroke-width="3"/>
<path d="M150.5 186.5C150.5 188.653 150.035 190.527 149.356 191.809C148.642 193.157 147.913 193.5 147.5 193.5C147.087 193.5 146.358 193.157 145.644 191.809C144.965 190.527 144.5 188.653 144.5 186.5C144.5 184.347 144.965 182.473 145.644 181.191C146.358 179.843 147.087 179.5 147.5 179.5C147.913 179.5 148.642 179.843 149.356 181.191C150.035 182.473 150.5 184.347 150.5 186.5Z" stroke="#38CA20" stroke-opacity="0.04" stroke-width="3"/>
<path d="M109.5 186.5C109.5 188.627 108.99 190.48 108.243 191.75C107.475 193.054 106.632 193.5 106 193.5C105.368 193.5 104.525 193.054 103.757 191.75C103.01 190.48 102.5 188.627 102.5 186.5C102.5 184.373 103.01 182.52 103.757 181.25C104.525 179.946 105.368 179.5 106 179.5C106.632 179.5 107.475 179.946 108.243 181.25C108.99 182.52 109.5 184.373 109.5 186.5Z" stroke="#38CA20" stroke-opacity="0.04" stroke-width="3"/>
<path d="M172.5 186.5C172.5 188.627 171.99 190.48 171.243 191.75C170.475 193.054 169.632 193.5 169 193.5C168.368 193.5 167.525 193.054 166.757 191.75C166.01 190.48 165.5 188.627 165.5 186.5C165.5 184.373 166.01 182.52 166.757 181.25C167.525 179.946 168.368 179.5 169 179.5C169.632 179.5 170.475 179.946 171.243 181.25C171.99 182.52 172.5 184.373 172.5 186.5Z" stroke="#38CA20" stroke-opacity="0.04" stroke-width="3"/>
<path d="M214.5 136.5C214.5 138.627 213.99 140.48 213.243 141.75C212.475 143.054 211.632 143.5 211 143.5C210.368 143.5 209.525 143.054 208.757 141.75C208.01 140.48 207.5 138.627 207.5 136.5C207.5 134.373 208.01 132.52 208.757 131.25C209.525 129.946 210.368 129.5 211 129.5C211.632 129.5 212.475 129.946 213.243 131.25C213.99 132.52 214.5 134.373 214.5 136.5Z" stroke="#38CA20" stroke-opacity="0.04" stroke-width="3"/>
<path d="M214.5 212.5C214.5 214.627 213.99 216.48 213.243 217.75C212.475 219.054 211.632 219.5 211 219.5C210.368 219.5 209.525 219.054 208.757 217.75C208.01 216.48 207.5 214.627 207.5 212.5C207.5 210.373 208.01 208.52 208.757 207.25C209.525 205.946 210.368 205.5 211 205.5C211.632 205.5 212.475 205.946 213.243 207.25C213.99 208.52 214.5 210.373 214.5 212.5Z" stroke="#38CA20" stroke-opacity="0.04" stroke-width="3"/>
<path d="M234.5 238C234.5 239.973 233.997 241.688 233.264 242.862C232.517 244.057 231.677 244.5 231 244.5C230.323 244.5 229.483 244.057 228.736 242.862C228.003 241.688 227.5 239.973 227.5 238C227.5 236.027 228.003 234.312 228.736 233.138C229.483 231.943 230.323 231.5 231 231.5C231.677 231.5 232.517 231.943 233.264 233.138C233.997 234.312 234.5 236.027 234.5 238Z" stroke="#38CA20" stroke-opacity="0.04" stroke-width="3"/>
<path d="M234.5 186.5C234.5 188.627 233.99 190.48 233.243 191.75C232.475 193.054 231.632 193.5 231 193.5C230.368 193.5 229.525 193.054 228.757 191.75C228.01 190.48 227.5 188.627 227.5 186.5C227.5 184.373 228.01 182.52 228.757 181.25C229.525 179.946 230.368 179.5 231 179.5C231.632 179.5 232.475 179.946 233.243 181.25C233.99 182.52 234.5 184.373 234.5 186.5Z" stroke="#38CA20" stroke-opacity="0.04" stroke-width="3"/>
<path d="M214.5 186.5C214.5 188.627 213.99 190.48 213.243 191.75C212.475 193.054 211.632 193.5 211 193.5C210.368 193.5 209.525 193.054 208.757 191.75C208.01 190.48 207.5 188.627 207.5 186.5C207.5 184.373 208.01 182.52 208.757 181.25C209.525 179.946 210.368 179.5 211 179.5C211.632 179.5 212.475 179.946 213.243 181.25C213.99 182.52 214.5 184.373 214.5 186.5Z" stroke="#38CA20" stroke-opacity="0.04" stroke-width="3"/>
</svg>
