<svg width="25" height="22" viewBox="0 0 25 22" fill="none" xmlns="http://www.w3.org/2000/svg">
<path d="M3.85483 21.4286H20.2531C20.2531 21.4286 18.7069 19.8203 18.527 18.6705C17.6639 13.1543 25 12.235 25 4.8801C25 1.20266 19.3901 0.283298 19.3901 0.283298C19.3901 0.283298 11.6228 -0.354122 9.89634 0.283298C8.37263 0.845875 -2.16986 10.8007 0.402376 17.7511C1.36783 20.3599 3.37091 21.4286 3.85483 21.4286Z" fill="#FF4C24"/>
<path d="M13.8394 15.0975L16.0715 11.6884L6.69653 11.6884C6.69653 11.6884 5.35725 12.6624 5.35725 13.6364C5.35725 15.1924 6.1013 15.0975 6.69653 15.0975L13.8394 15.0975Z" fill="white"/>
<path d="M10.7142 5.35715L8.03564 8.76624H17.8571C17.8571 8.76624 19.1964 7.51035 19.1964 6.81819C19.1964 6.03219 18.4523 5.35715 17.8571 5.35715H10.7142Z" fill="white"/>
</svg>
