<svg width="25" height="25" viewBox="0 0 25 25" fill="none" xmlns="http://www.w3.org/2000/svg">
<path d="M14.2859 0H24.0002C24.5525 0 25.0002 0.447715 25.0002 1V6.6388H14.2859V0Z" fill="#75D28F"/>
<rect x="14.2859" y="6.63881" width="10.7144" height="5.53234" fill="#63B675"/>
<rect x="3.57129" y="6.63881" width="10.7144" height="5.53234" fill="#2FAF4C"/>
<rect x="14.2859" y="12.1711" width="10.7144" height="5.53234" fill="#36A74F"/>
<rect x="3.57129" y="12.1711" width="10.7144" height="5.53234" fill="#27963F"/>
<path d="M14.2859 17.7035H25.0002V23.3423C25.0002 23.8946 24.5525 24.3423 24.0002 24.3423H14.2859V17.7035Z" fill="#1C702E"/>
<path d="M3.57129 17.7035H14.2856V24.3423H4.57129C4.019 24.3423 3.57129 23.8946 3.57129 23.3423V17.7035Z" fill="#338F47"/>
<path d="M3.57129 0.999999C3.57129 0.447714 4.019 0 4.57129 0H14.2856V6.6388H3.57129V0.999999Z" fill="#59C777"/>
<rect y="6.63881" width="12.0908" height="11.2376" rx="1" fill="#4ED153"/>
<path d="M4.35212 9.09703H2.8335L5.28945 12.3927L2.8335 15.6883H4.35212L6.12506 13.3111L7.89799 15.6883H9.44568L6.98972 12.3927L9.44568 9.09703H7.89799L6.12506 11.3797L4.35212 9.09703Z" fill="white"/>
</svg>
