<svg width="1031" height="529" viewBox="0 0 1031 529" fill="none" xmlns="http://www.w3.org/2000/svg">
<path d="M845 205.214C845 205.214 849.251 200.495 849.251 202.494V217M849.251 217L845 217M849.251 217L853 217" stroke="white" stroke-width="2" stroke-linecap="round"/>
<path d="M845 230.214C845 230.214 849.251 225.495 849.251 227.494V242M849.251 242L845 242M849.251 242L853 242" stroke="white" stroke-width="2" stroke-linecap="round"/>
<path d="M886 230.214C886 230.214 890.783 225.495 890.783 227.494V242M890.783 242L886 242M890.783 242L895 242" stroke="white" stroke-width="2" stroke-linecap="round"/>
<path d="M845 254.428C845 254.428 849.251 249.394 849.251 251.526V267M849.251 267L845 267M849.251 267L853 267" stroke="white" stroke-width="2" stroke-linecap="round"/>
<path d="M824 230.214C824 230.214 828.783 225.495 828.783 227.494V242M828.783 242L824 242M828.783 242L833 242" stroke="white" stroke-width="2" stroke-linecap="round"/>
<path d="M873 209.5C873 211.717 872.522 213.675 871.798 215.043C871.051 216.455 870.19 217 869.5 217C868.81 217 867.949 216.455 867.202 215.043C866.478 213.675 866 211.717 866 209.5C866 207.283 866.478 205.325 867.202 203.957C867.949 202.546 868.81 202 869.5 202C870.19 202 871.051 202.546 871.798 203.957C872.522 205.325 873 207.283 873 209.5Z" stroke="white" stroke-width="2"/>
<path d="M832 209.5C832 211.701 831.473 213.644 830.674 215.003C829.86 216.386 828.882 217 828 217C827.118 217 826.14 216.386 825.326 215.003C824.527 213.644 824 211.701 824 209.5C824 207.299 824.527 205.356 825.326 203.997C826.14 202.614 827.118 202 828 202C828.882 202 829.86 202.614 830.674 203.997C831.473 205.356 832 207.299 832 209.5Z" stroke="white" stroke-width="2"/>
<path d="M895 209.5C895 211.701 894.473 213.644 893.674 215.003C892.86 216.386 891.882 217 891 217C890.118 217 889.14 216.386 888.326 215.003C887.527 213.644 887 211.701 887 209.5C887 207.299 887.527 205.356 888.326 203.997C889.14 202.614 890.118 202 891 202C891.882 202 892.86 202.614 893.674 203.997C894.473 205.356 895 207.299 895 209.5Z" stroke="white" stroke-width="2"/>
<path d="M873 234.5C873 236.717 872.522 238.675 871.798 240.043C871.051 241.455 870.19 242 869.5 242C868.81 242 867.949 241.455 867.202 240.043C866.478 238.675 866 236.717 866 234.5C866 232.283 866.478 230.325 867.202 228.957C867.949 227.546 868.81 227 869.5 227C870.19 227 871.051 227.546 871.798 228.957C872.522 230.325 873 232.283 873 234.5Z" stroke="white" stroke-width="2"/>
<path d="M873 259.5C873 261.717 872.522 263.675 871.798 265.043C871.051 266.455 870.19 267 869.5 267C868.81 267 867.949 266.455 867.202 265.043C866.478 263.675 866 261.717 866 259.5C866 257.283 866.478 255.325 867.202 253.957C867.949 252.546 868.81 252 869.5 252C870.19 252 871.051 252.546 871.798 253.957C872.522 255.325 873 257.283 873 259.5Z" stroke="white" stroke-width="2"/>
<path d="M832 259.5C832 261.701 831.473 263.644 830.674 265.003C829.86 266.386 828.882 267 828 267C827.118 267 826.14 266.386 825.326 265.003C824.527 263.644 824 261.701 824 259.5C824 257.299 824.527 255.356 825.326 253.997C826.14 252.614 827.118 252 828 252C828.882 252 829.86 252.614 830.674 253.997C831.473 255.356 832 257.299 832 259.5Z" stroke="white" stroke-width="2"/>
<path d="M895 259.5C895 261.701 894.473 263.644 893.674 265.003C892.86 266.386 891.882 267 891 267C890.118 267 889.14 266.386 888.326 265.003C887.527 263.644 887 261.701 887 259.5C887 257.299 887.527 255.356 888.326 253.997C889.14 252.614 890.118 252 891 252C891.882 252 892.86 252.614 893.674 253.997C894.473 255.356 895 257.299 895 259.5Z" stroke="white" stroke-width="2"/>
<path d="M845 205.214C845 205.214 849.251 200.495 849.251 202.494V217M849.251 217L845 217M849.251 217L853 217" stroke="white" stroke-width="2" stroke-linecap="round"/>
<path d="M845 230.214C845 230.214 849.251 225.495 849.251 227.494V242M849.251 242L845 242M849.251 242L853 242" stroke="white" stroke-width="2" stroke-linecap="round"/>
<path d="M886 230.214C886 230.214 890.783 225.495 890.783 227.494V242M890.783 242L886 242M890.783 242L895 242" stroke="white" stroke-width="2" stroke-linecap="round"/>
<path d="M845 254.428C845 254.428 849.251 249.394 849.251 251.526V267M849.251 267L845 267M849.251 267L853 267" stroke="white" stroke-width="2" stroke-linecap="round"/>
<path d="M824 230.214C824 230.214 828.783 225.495 828.783 227.494V242M828.783 242L824 242M828.783 242L833 242" stroke="white" stroke-width="2" stroke-linecap="round"/>
<path d="M873 209.5C873 211.717 872.522 213.675 871.798 215.043C871.051 216.455 870.19 217 869.5 217C868.81 217 867.949 216.455 867.202 215.043C866.478 213.675 866 211.717 866 209.5C866 207.283 866.478 205.325 867.202 203.957C867.949 202.546 868.81 202 869.5 202C870.19 202 871.051 202.546 871.798 203.957C872.522 205.325 873 207.283 873 209.5Z" stroke="white" stroke-width="2"/>
<path d="M832 209.5C832 211.701 831.473 213.644 830.674 215.003C829.86 216.386 828.882 217 828 217C827.118 217 826.14 216.386 825.326 215.003C824.527 213.644 824 211.701 824 209.5C824 207.299 824.527 205.356 825.326 203.997C826.14 202.614 827.118 202 828 202C828.882 202 829.86 202.614 830.674 203.997C831.473 205.356 832 207.299 832 209.5Z" stroke="white" stroke-width="2"/>
<path d="M895 209.5C895 211.701 894.473 213.644 893.674 215.003C892.86 216.386 891.882 217 891 217C890.118 217 889.14 216.386 888.326 215.003C887.527 213.644 887 211.701 887 209.5C887 207.299 887.527 205.356 888.326 203.997C889.14 202.614 890.118 202 891 202C891.882 202 892.86 202.614 893.674 203.997C894.473 205.356 895 207.299 895 209.5Z" stroke="white" stroke-width="2"/>
<path d="M873 234.5C873 236.717 872.522 238.675 871.798 240.043C871.051 241.455 870.19 242 869.5 242C868.81 242 867.949 241.455 867.202 240.043C866.478 238.675 866 236.717 866 234.5C866 232.283 866.478 230.325 867.202 228.957C867.949 227.546 868.81 227 869.5 227C870.19 227 871.051 227.546 871.798 228.957C872.522 230.325 873 232.283 873 234.5Z" stroke="white" stroke-width="2"/>
<path d="M873 259.5C873 261.717 872.522 263.675 871.798 265.043C871.051 266.455 870.19 267 869.5 267C868.81 267 867.949 266.455 867.202 265.043C866.478 263.675 866 261.717 866 259.5C866 257.283 866.478 255.325 867.202 253.957C867.949 252.546 868.81 252 869.5 252C870.19 252 871.051 252.546 871.798 253.957C872.522 255.325 873 257.283 873 259.5Z" stroke="white" stroke-width="2"/>
<path d="M832 259.5C832 261.701 831.473 263.644 830.674 265.003C829.86 266.386 828.882 267 828 267C827.118 267 826.14 266.386 825.326 265.003C824.527 263.644 824 261.701 824 259.5C824 257.299 824.527 255.356 825.326 253.997C826.14 252.614 827.118 252 828 252C828.882 252 829.86 252.614 830.674 253.997C831.473 255.356 832 257.299 832 259.5Z" stroke="white" stroke-width="2"/>
<path d="M895 259.5C895 261.701 894.473 263.644 893.674 265.003C892.86 266.386 891.882 267 891 267C890.118 267 889.14 266.386 888.326 265.003C887.527 263.644 887 261.701 887 259.5C887 257.299 887.527 255.356 888.326 253.997C889.14 252.614 890.118 252 891 252C891.882 252 892.86 252.614 893.674 253.997C894.473 255.356 895 257.299 895 259.5Z" stroke="white" stroke-width="2"/>
<path d="M743 230.214C743 230.214 747.783 225.495 747.783 227.494V242M747.783 242L743 242M747.783 242L752 242" stroke="white" stroke-width="2" stroke-linecap="round"/>
<path d="M752 209.5C752 211.701 751.473 213.644 750.674 215.003C749.86 216.386 748.882 217 748 217C747.118 217 746.14 216.386 745.326 215.003C744.527 213.644 744 211.701 744 209.5C744 207.299 744.527 205.356 745.326 203.997C746.14 202.614 747.118 202 748 202C748.882 202 749.86 202.614 750.674 203.997C751.473 205.356 752 207.299 752 209.5Z" stroke="white" stroke-width="2"/>
<path d="M752 259.5C752 261.701 751.473 263.644 750.674 265.003C749.86 266.386 748.882 267 748 267C747.118 267 746.14 266.386 745.326 265.003C744.527 263.644 744 261.701 744 259.5C744 257.299 744.527 255.356 745.326 253.997C746.14 252.614 747.118 252 748 252C748.882 252 749.86 252.614 750.674 253.997C751.473 255.356 752 257.299 752 259.5Z" stroke="white" stroke-width="2"/>
<path d="M743 230.214C743 230.214 747.783 225.495 747.783 227.494V242M747.783 242L743 242M747.783 242L752 242" stroke="white" stroke-width="2" stroke-linecap="round"/>
<path d="M752 209.5C752 211.701 751.473 213.644 750.674 215.003C749.86 216.386 748.882 217 748 217C747.118 217 746.14 216.386 745.326 215.003C744.527 213.644 744 211.701 744 209.5C744 207.299 744.527 205.356 745.326 203.997C746.14 202.614 747.118 202 748 202C748.882 202 749.86 202.614 750.674 203.997C751.473 205.356 752 207.299 752 209.5Z" stroke="white" stroke-width="2"/>
<path d="M752 259.5C752 261.701 751.473 263.644 750.674 265.003C749.86 266.386 748.882 267 748 267C747.118 267 746.14 266.386 745.326 265.003C744.527 263.644 744 261.701 744 259.5C744 257.299 744.527 255.356 745.326 253.997C746.14 252.614 747.118 252 748 252C748.882 252 749.86 252.614 750.674 253.997C751.473 255.356 752 257.299 752 259.5Z" stroke="white" stroke-width="2"/>
<path d="M765 205.214C765 205.214 769.251 200.495 769.251 202.494V217M769.251 217L765 217M769.251 217L773 217" stroke="#BBC2FF" stroke-width="2" stroke-linecap="round"/>
<path d="M743 230.214C743 230.214 747.783 225.495 747.783 227.494V242M747.783 242L743 242M747.783 242L752 242" stroke="#BBC2FF" stroke-width="2" stroke-linecap="round"/>
<path d="M765 281.428C765 281.428 769.251 276.394 769.251 278.526V294M769.251 294L765 294M769.251 294L773 294" stroke="#BBC2FF" stroke-width="2" stroke-linecap="round"/>
<path d="M743 306.428C743 306.428 747.783 301.394 747.783 303.526V319M747.783 319L743 319M747.783 319L752 319" stroke="#BBC2FF" stroke-width="2" stroke-linecap="round"/>
<path d="M807 205.214C807 205.214 811.251 200.495 811.251 202.494V217M811.251 217L807 217M811.251 217L815 217" stroke="#BBC2FF" stroke-width="2" stroke-linecap="round"/>
<path d="M785 230.214C785 230.214 789.251 225.495 789.251 227.494V242M789.251 242L785 242M789.251 242L793 242" stroke="#BBC2FF" stroke-width="2" stroke-linecap="round"/>
<path d="M807 281.428C807 281.428 811.251 276.394 811.251 278.526V294M811.251 294L807 294M811.251 294L815 294" stroke="#BBC2FF" stroke-width="2" stroke-linecap="round"/>
<path d="M785 306.428C785 306.428 789.251 301.394 789.251 303.526V319M789.251 319L785 319M789.251 319L793 319" stroke="#BBC2FF" stroke-width="2" stroke-linecap="round"/>
<path d="M845 205.214C845 205.214 849.251 200.495 849.251 202.494V217M849.251 217L845 217M849.251 217L853 217" stroke="#BBC2FF" stroke-width="2" stroke-linecap="round"/>
<path d="M908 205.214C908 205.214 912.251 200.495 912.251 202.494V217M912.251 217L908 217M912.251 217L916 217" stroke="#BBC2FF" stroke-width="2" stroke-linecap="round"/>
<path d="M845 230.214C845 230.214 849.251 225.495 849.251 227.494V242M849.251 242L845 242M849.251 242L853 242" stroke="#BBC2FF" stroke-width="2" stroke-linecap="round"/>
<path d="M886 230.214C886 230.214 890.783 225.495 890.783 227.494V242M890.783 242L886 242M890.783 242L895 242" stroke="#BBC2FF" stroke-width="2" stroke-linecap="round"/>
<path d="M845 254.428C845 254.428 849.251 249.394 849.251 251.526V267M849.251 267L845 267M849.251 267L853 267" stroke="#BBC2FF" stroke-width="2" stroke-linecap="round"/>
<path d="M824 230.214C824 230.214 828.783 225.495 828.783 227.494V242M828.783 242L824 242M828.783 242L833 242" stroke="#BBC2FF" stroke-width="2" stroke-linecap="round"/>
<path d="M845 281.428C845 281.428 849.251 276.394 849.251 278.526V294M849.251 294L845 294M849.251 294L853 294" stroke="#BBC2FF" stroke-width="2" stroke-linecap="round"/>
<path d="M908 281.428C908 281.428 912.251 276.394 912.251 278.526V294M912.251 294L908 294M912.251 294L916 294" stroke="#BBC2FF" stroke-width="2" stroke-linecap="round"/>
<path d="M845 306.428C845 306.428 849.251 301.394 849.251 303.526V319M849.251 319L845 319M849.251 319L853 319" stroke="#BBC2FF" stroke-width="2" stroke-linecap="round"/>
<path d="M886 306.428C886 306.428 890.783 301.394 890.783 303.526V319M890.783 319L886 319M890.783 319L895 319" stroke="#BBC2FF" stroke-width="2" stroke-linecap="round"/>
<path d="M824 306.428C824 306.428 828.783 301.394 828.783 303.526V319M828.783 319L824 319M828.783 319L833 319" stroke="#BBC2FF" stroke-width="2" stroke-linecap="round"/>
<path d="M950 205.214C950 205.214 954.251 200.495 954.251 202.494V217M954.251 217L950 217M954.251 217L958 217" stroke="#BBC2FF" stroke-width="2" stroke-linecap="round"/>
<path d="M928 230.214C928 230.214 932.251 225.495 932.251 227.494V242M932.251 242L928 242M932.251 242L936 242" stroke="#BBC2FF" stroke-width="2" stroke-linecap="round"/>
<path d="M950 281.428C950 281.428 954.251 276.394 954.251 278.526V294M954.251 294L950 294M954.251 294L958 294" stroke="#BBC2FF" stroke-width="2" stroke-linecap="round"/>
<path d="M928 306.428C928 306.428 932.251 301.394 932.251 303.526V319M932.251 319L928 319M932.251 319L936 319" stroke="#BBC2FF" stroke-width="2" stroke-linecap="round"/>
<path d="M832 285.5C832 287.701 831.473 289.644 830.674 291.003C829.86 292.386 828.882 293 828 293C827.118 293 826.14 292.386 825.326 291.003C824.527 289.644 824 287.701 824 285.5C824 283.299 824.527 281.356 825.326 279.997C826.14 278.614 827.118 278 828 278C828.882 278 829.86 278.614 830.674 279.997C831.473 281.356 832 283.299 832 285.5Z" stroke="#EEF0FF" stroke-width="2"/>
<path d="M873 311C873 313.07 872.526 314.895 871.81 316.167C871.077 317.47 870.221 318 869.5 318C868.779 318 867.923 317.47 867.19 316.167C866.474 314.895 866 313.07 866 311C866 308.93 866.474 307.105 867.19 305.833C867.923 304.53 868.779 304 869.5 304C870.221 304 871.077 304.53 871.81 305.833C872.526 307.105 873 308.93 873 311Z" stroke="#EEF0FF" stroke-width="2"/>
<path d="M957 234.5C957 236.701 956.473 238.644 955.674 240.003C954.86 241.386 953.882 242 953 242C952.118 242 951.14 241.386 950.326 240.003C949.527 238.644 949 236.701 949 234.5C949 232.299 949.527 230.356 950.326 228.997C951.14 227.614 952.118 227 953 227C953.882 227 954.86 227.614 955.674 228.997C956.473 230.356 957 232.299 957 234.5Z" stroke="#EEF0FF" stroke-width="2"/>
<path d="M730 209.5C730 211.717 729.522 213.675 728.798 215.043C728.051 216.455 727.19 217 726.5 217C725.81 217 724.949 216.455 724.202 215.043C723.478 213.675 723 211.717 723 209.5C723 207.283 723.478 205.325 724.202 203.957C724.949 202.546 725.81 202 726.5 202C727.19 202 728.051 202.546 728.798 203.957C729.522 205.325 730 207.283 730 209.5Z" stroke="#EEF0FF" stroke-width="2"/>
<path d="M730 234.5C730 236.717 729.522 238.675 728.798 240.043C728.051 241.455 727.19 242 726.5 242C725.81 242 724.949 241.455 724.202 240.043C723.478 238.675 723 236.717 723 234.5C723 232.283 723.478 230.325 724.202 228.957C724.949 227.546 725.81 227 726.5 227C727.19 227 728.051 227.546 728.798 228.957C729.522 230.325 730 232.283 730 234.5Z" stroke="#EEF0FF" stroke-width="2"/>
<path d="M730 259.5C730 261.717 729.522 263.675 728.798 265.043C728.051 266.455 727.19 267 726.5 267C725.81 267 724.949 266.455 724.202 265.043C723.478 263.675 723 261.717 723 259.5C723 257.283 723.478 255.325 724.202 253.957C724.949 252.546 725.81 252 726.5 252C727.19 252 728.051 252.546 728.798 253.957C729.522 255.325 730 257.283 730 259.5Z" stroke="#EEF0FF" stroke-width="2"/>
<path d="M730 209.5C730 211.717 729.522 213.675 728.798 215.043C728.051 216.455 727.19 217 726.5 217C725.81 217 724.949 216.455 724.202 215.043C723.478 213.675 723 211.717 723 209.5C723 207.283 723.478 205.325 724.202 203.957C724.949 202.546 725.81 202 726.5 202C727.19 202 728.051 202.546 728.798 203.957C729.522 205.325 730 207.283 730 209.5Z" stroke="#EEF0FF" stroke-width="2"/>
<path d="M730 234.5C730 236.717 729.522 238.675 728.798 240.043C728.051 241.455 727.19 242 726.5 242C725.81 242 724.949 241.455 724.202 240.043C723.478 238.675 723 236.717 723 234.5C723 232.283 723.478 230.325 724.202 228.957C724.949 227.546 725.81 227 726.5 227C727.19 227 728.051 227.546 728.798 228.957C729.522 230.325 730 232.283 730 234.5Z" stroke="#EEF0FF" stroke-width="2"/>
<path d="M730 259.5C730 261.717 729.522 263.675 728.798 265.043C728.051 266.455 727.19 267 726.5 267C725.81 267 724.949 266.455 724.202 265.043C723.478 263.675 723 261.717 723 259.5C723 257.283 723.478 255.325 724.202 253.957C724.949 252.546 725.81 252 726.5 252C727.19 252 728.051 252.546 728.798 253.957C729.522 255.325 730 257.283 730 259.5Z" stroke="#EEF0FF" stroke-width="2"/>
<path d="M730 209.5C730 211.717 729.522 213.675 728.798 215.043C728.051 216.455 727.19 217 726.5 217C725.81 217 724.949 216.455 724.202 215.043C723.478 213.675 723 211.717 723 209.5C723 207.283 723.478 205.325 724.202 203.957C724.949 202.546 725.81 202 726.5 202C727.19 202 728.051 202.546 728.798 203.957C729.522 205.325 730 207.283 730 209.5Z" stroke="#EEF0FF" stroke-width="2"/>
<path d="M752 209.5C752 211.701 751.473 213.644 750.674 215.003C749.86 216.386 748.882 217 748 217C747.118 217 746.14 216.386 745.326 215.003C744.527 213.644 744 211.701 744 209.5C744 207.299 744.527 205.356 745.326 203.997C746.14 202.614 747.118 202 748 202C748.882 202 749.86 202.614 750.674 203.997C751.473 205.356 752 207.299 752 209.5Z" stroke="#EEF0FF" stroke-width="2"/>
<path d="M772 234.5C772 236.717 771.522 238.675 770.798 240.043C770.051 241.455 769.19 242 768.5 242C767.81 242 766.949 241.455 766.202 240.043C765.478 238.675 765 236.717 765 234.5C765 232.283 765.478 230.325 766.202 228.957C766.949 227.546 767.81 227 768.5 227C769.19 227 770.051 227.546 770.798 228.957C771.522 230.325 772 232.283 772 234.5Z" stroke="#EEF0FF" stroke-width="2"/>
<path d="M730 234.5C730 236.717 729.522 238.675 728.798 240.043C728.051 241.455 727.19 242 726.5 242C725.81 242 724.949 241.455 724.202 240.043C723.478 238.675 723 236.717 723 234.5C723 232.283 723.478 230.325 724.202 228.957C724.949 227.546 725.81 227 726.5 227C727.19 227 728.051 227.546 728.798 228.957C729.522 230.325 730 232.283 730 234.5Z" stroke="#EEF0FF" stroke-width="2"/>
<path d="M730 285.5C730 287.717 729.522 289.675 728.798 291.043C728.051 292.455 727.19 293 726.5 293C725.81 293 724.949 292.455 724.202 291.043C723.478 289.675 723 287.717 723 285.5C723 283.283 723.478 281.325 724.202 279.957C724.949 278.546 725.81 278 726.5 278C727.19 278 728.051 278.546 728.798 279.957C729.522 281.325 730 283.283 730 285.5Z" stroke="#EEF0FF" stroke-width="2"/>
<path d="M752 285.5C752 287.701 751.473 289.644 750.674 291.003C749.86 292.386 748.882 293 748 293C747.118 293 746.14 292.386 745.326 291.003C744.527 289.644 744 287.701 744 285.5C744 283.299 744.527 281.356 745.326 279.997C746.14 278.614 747.118 278 748 278C748.882 278 749.86 278.614 750.674 279.997C751.473 281.356 752 283.299 752 285.5Z" stroke="#EEF0FF" stroke-width="2"/>
<path d="M772 311C772 313.07 771.526 314.895 770.81 316.167C770.077 317.47 769.221 318 768.5 318C767.779 318 766.923 317.47 766.19 316.167C765.474 314.895 765 313.07 765 311C765 308.93 765.474 307.105 766.19 305.833C766.923 304.53 767.779 304 768.5 304C769.221 304 770.077 304.53 770.81 305.833C771.526 307.105 772 308.93 772 311Z" stroke="#EEF0FF" stroke-width="2"/>
<path d="M730 311C730 313.07 729.526 314.895 728.81 316.167C728.077 317.47 727.221 318 726.5 318C725.779 318 724.923 317.47 724.19 316.167C723.474 314.895 723 313.07 723 311C723 308.93 723.474 307.105 724.19 305.833C724.923 304.53 725.779 304 726.5 304C727.221 304 728.077 304.53 728.81 305.833C729.526 307.105 730 308.93 730 311Z" stroke="#EEF0FF" stroke-width="2"/>
<path d="M772 259.5C772 261.717 771.522 263.675 770.798 265.043C770.051 266.455 769.19 267 768.5 267C767.81 267 766.949 266.455 766.202 265.043C765.478 263.675 765 261.717 765 259.5C765 257.283 765.478 255.325 766.202 253.957C766.949 252.546 767.81 252 768.5 252C769.19 252 770.051 252.546 770.798 253.957C771.522 255.325 772 257.283 772 259.5Z" stroke="#EEF0FF" stroke-width="2"/>
<path d="M730 259.5C730 261.717 729.522 263.675 728.798 265.043C728.051 266.455 727.19 267 726.5 267C725.81 267 724.949 266.455 724.202 265.043C723.478 263.675 723 261.717 723 259.5C723 257.283 723.478 255.325 724.202 253.957C724.949 252.546 725.81 252 726.5 252C727.19 252 728.051 252.546 728.798 253.957C729.522 255.325 730 257.283 730 259.5Z" stroke="#EEF0FF" stroke-width="2"/>
<path d="M752 259.5C752 261.701 751.473 263.644 750.674 265.003C749.86 266.386 748.882 267 748 267C747.118 267 746.14 266.386 745.326 265.003C744.527 263.644 744 261.701 744 259.5C744 257.299 744.527 255.356 745.326 253.997C746.14 252.614 747.118 252 748 252C748.882 252 749.86 252.614 750.674 253.997C751.473 255.356 752 257.299 752 259.5Z" stroke="#EEF0FF" stroke-width="2"/>
<path d="M794 209.5C794 211.701 793.473 213.644 792.674 215.003C791.86 216.386 790.882 217 790 217C789.118 217 788.14 216.386 787.326 215.003C786.527 213.644 786 211.701 786 209.5C786 207.299 786.527 205.356 787.326 203.997C788.14 202.614 789.118 202 790 202C790.882 202 791.86 202.614 792.674 203.997C793.473 205.356 794 207.299 794 209.5Z" stroke="#EEF0FF" stroke-width="2"/>
<path d="M814 234.5C814 236.701 813.473 238.644 812.674 240.003C811.86 241.386 810.882 242 810 242C809.118 242 808.14 241.386 807.326 240.003C806.527 238.644 806 236.701 806 234.5C806 232.299 806.527 230.356 807.326 228.997C808.14 227.614 809.118 227 810 227C810.882 227 811.86 227.614 812.674 228.997C813.473 230.356 814 232.299 814 234.5Z" stroke="#EEF0FF" stroke-width="2"/>
<path d="M794 285.5C794 287.701 793.473 289.644 792.674 291.003C791.86 292.386 790.882 293 790 293C789.118 293 788.14 292.386 787.326 291.003C786.527 289.644 786 287.701 786 285.5C786 283.299 786.527 281.356 787.326 279.997C788.14 278.614 789.118 278 790 278C790.882 278 791.86 278.614 792.674 279.997C793.473 281.356 794 283.299 794 285.5Z" stroke="#EEF0FF" stroke-width="2"/>
<path d="M814 311C814 313.052 813.478 314.862 812.688 316.127C811.888 317.406 810.912 318 810 318C809.088 318 808.112 317.406 807.312 316.127C806.522 314.862 806 313.052 806 311C806 308.948 806.522 307.138 807.312 305.873C808.112 304.594 809.088 304 810 304C810.912 304 811.888 304.594 812.688 305.873C813.478 307.138 814 308.948 814 311Z" stroke="#EEF0FF" stroke-width="2"/>
<path d="M814 259.5C814 261.701 813.473 263.644 812.674 265.003C811.86 266.386 810.882 267 810 267C809.118 267 808.14 266.386 807.326 265.003C806.527 263.644 806 261.701 806 259.5C806 257.299 806.527 255.356 807.326 253.997C808.14 252.614 809.118 252 810 252C810.882 252 811.86 252.614 812.674 253.997C813.473 255.356 814 257.299 814 259.5Z" stroke="#EEF0FF" stroke-width="2"/>
<path d="M794 259.5C794 261.701 793.473 263.644 792.674 265.003C791.86 266.386 790.882 267 790 267C789.118 267 788.14 266.386 787.326 265.003C786.527 263.644 786 261.701 786 259.5C786 257.299 786.527 255.356 787.326 253.997C788.14 252.614 789.118 252 790 252C790.882 252 791.86 252.614 792.674 253.997C793.473 255.356 794 257.299 794 259.5Z" stroke="#EEF0FF" stroke-width="2"/>
<path d="M873 209.5C873 211.717 872.522 213.675 871.798 215.043C871.051 216.455 870.19 217 869.5 217C868.81 217 867.949 216.455 867.202 215.043C866.478 213.675 866 211.717 866 209.5C866 207.283 866.478 205.325 867.202 203.957C867.949 202.546 868.81 202 869.5 202C870.19 202 871.051 202.546 871.798 203.957C872.522 205.325 873 207.283 873 209.5Z" stroke="#EEF0FF" stroke-width="2"/>
<path d="M832 209.5C832 211.701 831.473 213.644 830.674 215.003C829.86 216.386 828.882 217 828 217C827.118 217 826.14 216.386 825.326 215.003C824.527 213.644 824 211.701 824 209.5C824 207.299 824.527 205.356 825.326 203.997C826.14 202.614 827.118 202 828 202C828.882 202 829.86 202.614 830.674 203.997C831.473 205.356 832 207.299 832 209.5Z" stroke="#EEF0FF" stroke-width="2"/>
<path d="M895 209.5C895 211.701 894.473 213.644 893.674 215.003C892.86 216.386 891.882 217 891 217C890.118 217 889.14 216.386 888.326 215.003C887.527 213.644 887 211.701 887 209.5C887 207.299 887.527 205.356 888.326 203.997C889.14 202.614 890.118 202 891 202C891.882 202 892.86 202.614 893.674 203.997C894.473 205.356 895 207.299 895 209.5Z" stroke="#EEF0FF" stroke-width="2"/>
<path d="M915 234.5C915 236.717 914.522 238.675 913.798 240.043C913.051 241.455 912.19 242 911.5 242C910.81 242 909.949 241.455 909.202 240.043C908.478 238.675 908 236.717 908 234.5C908 232.283 908.478 230.325 909.202 228.957C909.949 227.546 910.81 227 911.5 227C912.19 227 913.051 227.546 913.798 228.957C914.522 230.325 915 232.283 915 234.5Z" stroke="#EEF0FF" stroke-width="2"/>
<path d="M873 234.5C873 236.717 872.522 238.675 871.798 240.043C871.051 241.455 870.19 242 869.5 242C868.81 242 867.949 241.455 867.202 240.043C866.478 238.675 866 236.717 866 234.5C866 232.283 866.478 230.325 867.202 228.957C867.949 227.546 868.81 227 869.5 227C870.19 227 871.051 227.546 871.798 228.957C872.522 230.325 873 232.283 873 234.5Z" stroke="#EEF0FF" stroke-width="2"/>
<path d="M873 285.5C873 287.717 872.522 289.675 871.798 291.043C871.051 292.455 870.19 293 869.5 293C868.81 293 867.949 292.455 867.202 291.043C866.478 289.675 866 287.717 866 285.5C866 283.283 866.478 281.325 867.202 279.957C867.949 278.546 868.81 278 869.5 278C870.19 278 871.051 278.546 871.798 279.957C872.522 281.325 873 283.283 873 285.5Z" stroke="#EEF0FF" stroke-width="2"/>
<path d="M895 285.5C895 287.701 894.473 289.644 893.674 291.003C892.86 292.386 891.882 293 891 293C890.118 293 889.14 292.386 888.326 291.003C887.527 289.644 887 287.701 887 285.5C887 283.299 887.527 281.356 888.326 279.997C889.14 278.614 890.118 278 891 278C891.882 278 892.86 278.614 893.674 279.997C894.473 281.356 895 283.299 895 285.5Z" stroke="#EEF0FF" stroke-width="2"/>
<path d="M915 311C915 313.07 914.526 314.895 913.81 316.167C913.077 317.47 912.221 318 911.5 318C910.779 318 909.923 317.47 909.19 316.167C908.474 314.895 908 313.07 908 311C908 308.93 908.474 307.105 909.19 305.833C909.923 304.53 910.779 304 911.5 304C912.221 304 913.077 304.53 913.81 305.833C914.526 307.105 915 308.93 915 311Z" stroke="#EEF0FF" stroke-width="2"/>
<path d="M915 259.5C915 261.717 914.522 263.675 913.798 265.043C913.051 266.455 912.19 267 911.5 267C910.81 267 909.949 266.455 909.202 265.043C908.478 263.675 908 261.717 908 259.5C908 257.283 908.478 255.325 909.202 253.957C909.949 252.546 910.81 252 911.5 252C912.19 252 913.051 252.546 913.798 253.957C914.522 255.325 915 257.283 915 259.5Z" stroke="#EEF0FF" stroke-width="2"/>
<path d="M873 259.5C873 261.717 872.522 263.675 871.798 265.043C871.051 266.455 870.19 267 869.5 267C868.81 267 867.949 266.455 867.202 265.043C866.478 263.675 866 261.717 866 259.5C866 257.283 866.478 255.325 867.202 253.957C867.949 252.546 868.81 252 869.5 252C870.19 252 871.051 252.546 871.798 253.957C872.522 255.325 873 257.283 873 259.5Z" stroke="#EEF0FF" stroke-width="2"/>
<path d="M832 259.5C832 261.701 831.473 263.644 830.674 265.003C829.86 266.386 828.882 267 828 267C827.118 267 826.14 266.386 825.326 265.003C824.527 263.644 824 261.701 824 259.5C824 257.299 824.527 255.356 825.326 253.997C826.14 252.614 827.118 252 828 252C828.882 252 829.86 252.614 830.674 253.997C831.473 255.356 832 257.299 832 259.5Z" stroke="#EEF0FF" stroke-width="2"/>
<path d="M895 259.5C895 261.701 894.473 263.644 893.674 265.003C892.86 266.386 891.882 267 891 267C890.118 267 889.14 266.386 888.326 265.003C887.527 263.644 887 261.701 887 259.5C887 257.299 887.527 255.356 888.326 253.997C889.14 252.614 890.118 252 891 252C891.882 252 892.86 252.614 893.674 253.997C894.473 255.356 895 257.299 895 259.5Z" stroke="#EEF0FF" stroke-width="2"/>
<path d="M937 209.5C937 211.701 936.473 213.644 935.674 215.003C934.86 216.386 933.882 217 933 217C932.118 217 931.14 216.386 930.326 215.003C929.527 213.644 929 211.701 929 209.5C929 207.299 929.527 205.356 930.326 203.997C931.14 202.614 932.118 202 933 202C933.882 202 934.86 202.614 935.674 203.997C936.473 205.356 937 207.299 937 209.5Z" stroke="#EEF0FF" stroke-width="2"/>
<path d="M937 285.5C937 287.701 936.473 289.644 935.674 291.003C934.86 292.386 933.882 293 933 293C932.118 293 931.14 292.386 930.326 291.003C929.527 289.644 929 287.701 929 285.5C929 283.299 929.527 281.356 930.326 279.997C931.14 278.614 932.118 278 933 278C933.882 278 934.86 278.614 935.674 279.997C936.473 281.356 937 283.299 937 285.5Z" stroke="#EEF0FF" stroke-width="2"/>
<path d="M957 311C957 313.052 956.478 314.862 955.688 316.127C954.888 317.406 953.912 318 953 318C952.088 318 951.112 317.406 950.312 316.127C949.522 314.862 949 313.052 949 311C949 308.948 949.522 307.138 950.312 305.873C951.112 304.594 952.088 304 953 304C953.912 304 954.888 304.594 955.688 305.873C956.478 307.138 957 308.948 957 311Z" stroke="#EEF0FF" stroke-width="2"/>
<path d="M957 259.5C957 261.701 956.473 263.644 955.674 265.003C954.86 266.386 953.882 267 953 267C952.118 267 951.14 266.386 950.326 265.003C949.527 263.644 949 261.701 949 259.5C949 257.299 949.527 255.356 950.326 253.997C951.14 252.614 952.118 252 953 252C953.882 252 954.86 252.614 955.674 253.997C956.473 255.356 957 257.299 957 259.5Z" stroke="#EEF0FF" stroke-width="2"/>
<path d="M937 259.5C937 261.701 936.473 263.644 935.674 265.003C934.86 266.386 933.882 267 933 267C932.118 267 931.14 266.386 930.326 265.003C929.527 263.644 929 261.701 929 259.5C929 257.299 929.527 255.356 930.326 253.997C931.14 252.614 932.118 252 933 252C933.882 252 934.86 252.614 935.674 253.997C936.473 255.356 937 257.299 937 259.5Z" stroke="#EEF0FF" stroke-width="2"/>
<path d="M845 332.214C845 332.214 849.251 327.495 849.251 329.494V344M849.251 344L845 344M849.251 344L853 344" stroke="white" stroke-width="2" stroke-linecap="round"/>
<path d="M845 357.214C845 357.214 849.251 352.495 849.251 354.494V369M849.251 369L845 369M849.251 369L853 369" stroke="white" stroke-width="2" stroke-linecap="round"/>
<path d="M886 357.214C886 357.214 890.783 352.495 890.783 354.494V369M890.783 369L886 369M890.783 369L895 369" stroke="white" stroke-width="2" stroke-linecap="round"/>
<path d="M845 381.428C845 381.428 849.251 376.394 849.251 378.526V394M849.251 394L845 394M849.251 394L853 394" stroke="white" stroke-width="2" stroke-linecap="round"/>
<path d="M824 357.214C824 357.214 828.783 352.495 828.783 354.494V369M828.783 369L824 369M828.783 369L833 369" stroke="white" stroke-width="2" stroke-linecap="round"/>
<path d="M873 336.5C873 338.717 872.522 340.675 871.798 342.043C871.051 343.455 870.19 344 869.5 344C868.81 344 867.949 343.455 867.202 342.043C866.478 340.675 866 338.717 866 336.5C866 334.283 866.478 332.325 867.202 330.957C867.949 329.546 868.81 329 869.5 329C870.19 329 871.051 329.546 871.798 330.957C872.522 332.325 873 334.283 873 336.5Z" stroke="white" stroke-width="2"/>
<path d="M832 336.5C832 338.701 831.473 340.644 830.674 342.003C829.86 343.386 828.882 344 828 344C827.118 344 826.14 343.386 825.326 342.003C824.527 340.644 824 338.701 824 336.5C824 334.299 824.527 332.356 825.326 330.997C826.14 329.614 827.118 329 828 329C828.882 329 829.86 329.614 830.674 330.997C831.473 332.356 832 334.299 832 336.5Z" stroke="white" stroke-width="2"/>
<path d="M895 336.5C895 338.701 894.473 340.644 893.674 342.003C892.86 343.386 891.882 344 891 344C890.118 344 889.14 343.386 888.326 342.003C887.527 340.644 887 338.701 887 336.5C887 334.299 887.527 332.356 888.326 330.997C889.14 329.614 890.118 329 891 329C891.882 329 892.86 329.614 893.674 330.997C894.473 332.356 895 334.299 895 336.5Z" stroke="white" stroke-width="2"/>
<path d="M873 361.5C873 363.717 872.522 365.675 871.798 367.043C871.051 368.455 870.19 369 869.5 369C868.81 369 867.949 368.455 867.202 367.043C866.478 365.675 866 363.717 866 361.5C866 359.283 866.478 357.325 867.202 355.957C867.949 354.546 868.81 354 869.5 354C870.19 354 871.051 354.546 871.798 355.957C872.522 357.325 873 359.283 873 361.5Z" stroke="white" stroke-width="2"/>
<path d="M873 386.5C873 388.717 872.522 390.675 871.798 392.043C871.051 393.455 870.19 394 869.5 394C868.81 394 867.949 393.455 867.202 392.043C866.478 390.675 866 388.717 866 386.5C866 384.283 866.478 382.325 867.202 380.957C867.949 379.546 868.81 379 869.5 379C870.19 379 871.051 379.546 871.798 380.957C872.522 382.325 873 384.283 873 386.5Z" stroke="white" stroke-width="2"/>
<path d="M832 386.5C832 388.701 831.473 390.644 830.674 392.003C829.86 393.386 828.882 394 828 394C827.118 394 826.14 393.386 825.326 392.003C824.527 390.644 824 388.701 824 386.5C824 384.299 824.527 382.356 825.326 380.997C826.14 379.614 827.118 379 828 379C828.882 379 829.86 379.614 830.674 380.997C831.473 382.356 832 384.299 832 386.5Z" stroke="white" stroke-width="2"/>
<path d="M895 386.5C895 388.701 894.473 390.644 893.674 392.003C892.86 393.386 891.882 394 891 394C890.118 394 889.14 393.386 888.326 392.003C887.527 390.644 887 388.701 887 386.5C887 384.299 887.527 382.356 888.326 380.997C889.14 379.614 890.118 379 891 379C891.882 379 892.86 379.614 893.674 380.997C894.473 382.356 895 384.299 895 386.5Z" stroke="white" stroke-width="2"/>
<path d="M845 332.214C845 332.214 849.251 327.495 849.251 329.494V344M849.251 344L845 344M849.251 344L853 344" stroke="white" stroke-width="2" stroke-linecap="round"/>
<path d="M845 357.214C845 357.214 849.251 352.495 849.251 354.494V369M849.251 369L845 369M849.251 369L853 369" stroke="white" stroke-width="2" stroke-linecap="round"/>
<path d="M886 357.214C886 357.214 890.783 352.495 890.783 354.494V369M890.783 369L886 369M890.783 369L895 369" stroke="white" stroke-width="2" stroke-linecap="round"/>
<path d="M845 381.428C845 381.428 849.251 376.394 849.251 378.526V394M849.251 394L845 394M849.251 394L853 394" stroke="white" stroke-width="2" stroke-linecap="round"/>
<path d="M824 357.214C824 357.214 828.783 352.495 828.783 354.494V369M828.783 369L824 369M828.783 369L833 369" stroke="white" stroke-width="2" stroke-linecap="round"/>
<path d="M873 336.5C873 338.717 872.522 340.675 871.798 342.043C871.051 343.455 870.19 344 869.5 344C868.81 344 867.949 343.455 867.202 342.043C866.478 340.675 866 338.717 866 336.5C866 334.283 866.478 332.325 867.202 330.957C867.949 329.546 868.81 329 869.5 329C870.19 329 871.051 329.546 871.798 330.957C872.522 332.325 873 334.283 873 336.5Z" stroke="white" stroke-width="2"/>
<path d="M832 336.5C832 338.701 831.473 340.644 830.674 342.003C829.86 343.386 828.882 344 828 344C827.118 344 826.14 343.386 825.326 342.003C824.527 340.644 824 338.701 824 336.5C824 334.299 824.527 332.356 825.326 330.997C826.14 329.614 827.118 329 828 329C828.882 329 829.86 329.614 830.674 330.997C831.473 332.356 832 334.299 832 336.5Z" stroke="white" stroke-width="2"/>
<path d="M895 336.5C895 338.701 894.473 340.644 893.674 342.003C892.86 343.386 891.882 344 891 344C890.118 344 889.14 343.386 888.326 342.003C887.527 340.644 887 338.701 887 336.5C887 334.299 887.527 332.356 888.326 330.997C889.14 329.614 890.118 329 891 329C891.882 329 892.86 329.614 893.674 330.997C894.473 332.356 895 334.299 895 336.5Z" stroke="white" stroke-width="2"/>
<path d="M873 361.5C873 363.717 872.522 365.675 871.798 367.043C871.051 368.455 870.19 369 869.5 369C868.81 369 867.949 368.455 867.202 367.043C866.478 365.675 866 363.717 866 361.5C866 359.283 866.478 357.325 867.202 355.957C867.949 354.546 868.81 354 869.5 354C870.19 354 871.051 354.546 871.798 355.957C872.522 357.325 873 359.283 873 361.5Z" stroke="white" stroke-width="2"/>
<path d="M873 386.5C873 388.717 872.522 390.675 871.798 392.043C871.051 393.455 870.19 394 869.5 394C868.81 394 867.949 393.455 867.202 392.043C866.478 390.675 866 388.717 866 386.5C866 384.283 866.478 382.325 867.202 380.957C867.949 379.546 868.81 379 869.5 379C870.19 379 871.051 379.546 871.798 380.957C872.522 382.325 873 384.283 873 386.5Z" stroke="white" stroke-width="2"/>
<path d="M832 386.5C832 388.701 831.473 390.644 830.674 392.003C829.86 393.386 828.882 394 828 394C827.118 394 826.14 393.386 825.326 392.003C824.527 390.644 824 388.701 824 386.5C824 384.299 824.527 382.356 825.326 380.997C826.14 379.614 827.118 379 828 379C828.882 379 829.86 379.614 830.674 380.997C831.473 382.356 832 384.299 832 386.5Z" stroke="white" stroke-width="2"/>
<path d="M895 386.5C895 388.701 894.473 390.644 893.674 392.003C892.86 393.386 891.882 394 891 394C890.118 394 889.14 393.386 888.326 392.003C887.527 390.644 887 388.701 887 386.5C887 384.299 887.527 382.356 888.326 380.997C889.14 379.614 890.118 379 891 379C891.882 379 892.86 379.614 893.674 380.997C894.473 382.356 895 384.299 895 386.5Z" stroke="white" stroke-width="2"/>
<path d="M743 357.214C743 357.214 747.783 352.495 747.783 354.494V369M747.783 369L743 369M747.783 369L752 369" stroke="white" stroke-width="2" stroke-linecap="round"/>
<path d="M752 336.5C752 338.701 751.473 340.644 750.674 342.003C749.86 343.386 748.882 344 748 344C747.118 344 746.14 343.386 745.326 342.003C744.527 340.644 744 338.701 744 336.5C744 334.299 744.527 332.356 745.326 330.997C746.14 329.614 747.118 329 748 329C748.882 329 749.86 329.614 750.674 330.997C751.473 332.356 752 334.299 752 336.5Z" stroke="white" stroke-width="2"/>
<path d="M752 386.5C752 388.701 751.473 390.644 750.674 392.003C749.86 393.386 748.882 394 748 394C747.118 394 746.14 393.386 745.326 392.003C744.527 390.644 744 388.701 744 386.5C744 384.299 744.527 382.356 745.326 380.997C746.14 379.614 747.118 379 748 379C748.882 379 749.86 379.614 750.674 380.997C751.473 382.356 752 384.299 752 386.5Z" stroke="white" stroke-width="2"/>
<path d="M743 357.214C743 357.214 747.783 352.495 747.783 354.494V369M747.783 369L743 369M747.783 369L752 369" stroke="white" stroke-width="2" stroke-linecap="round"/>
<path d="M752 336.5C752 338.701 751.473 340.644 750.674 342.003C749.86 343.386 748.882 344 748 344C747.118 344 746.14 343.386 745.326 342.003C744.527 340.644 744 338.701 744 336.5C744 334.299 744.527 332.356 745.326 330.997C746.14 329.614 747.118 329 748 329C748.882 329 749.86 329.614 750.674 330.997C751.473 332.356 752 334.299 752 336.5Z" stroke="white" stroke-width="2"/>
<path d="M752 386.5C752 388.701 751.473 390.644 750.674 392.003C749.86 393.386 748.882 394 748 394C747.118 394 746.14 393.386 745.326 392.003C744.527 390.644 744 388.701 744 386.5C744 384.299 744.527 382.356 745.326 380.997C746.14 379.614 747.118 379 748 379C748.882 379 749.86 379.614 750.674 380.997C751.473 382.356 752 384.299 752 386.5Z" stroke="white" stroke-width="2"/>
<path d="M765 332.214C765 332.214 769.251 327.495 769.251 329.494V344M769.251 344L765 344M769.251 344L773 344" stroke="#BBC2FF" stroke-width="2" stroke-linecap="round"/>
<path d="M743 357.214C743 357.214 747.783 352.495 747.783 354.494V369M747.783 369L743 369M747.783 369L752 369" stroke="#BBC2FF" stroke-width="2" stroke-linecap="round"/>
<path d="M765 408.428C765 408.428 769.251 403.394 769.251 405.526V421M769.251 421L765 421M769.251 421L773 421" stroke="#BBC2FF" stroke-width="2" stroke-linecap="round"/>
<path d="M743 433.428C743 433.428 747.783 428.394 747.783 430.526V446M747.783 446L743 446M747.783 446L752 446" stroke="#BBC2FF" stroke-width="2" stroke-linecap="round"/>
<path d="M807 332.214C807 332.214 811.251 327.495 811.251 329.494V344M811.251 344L807 344M811.251 344L815 344" stroke="#BBC2FF" stroke-width="2" stroke-linecap="round"/>
<path d="M785 357.214C785 357.214 789.251 352.495 789.251 354.494V369M789.251 369L785 369M789.251 369L793 369" stroke="#BBC2FF" stroke-width="2" stroke-linecap="round"/>
<path d="M807 408.428C807 408.428 811.251 403.394 811.251 405.526V421M811.251 421L807 421M811.251 421L815 421" stroke="#BBC2FF" stroke-width="2" stroke-linecap="round"/>
<path d="M785 433.428C785 433.428 789.251 428.394 789.251 430.526V446M789.251 446L785 446M789.251 446L793 446" stroke="#BBC2FF" stroke-width="2" stroke-linecap="round"/>
<path d="M845 332.214C845 332.214 849.251 327.495 849.251 329.494V344M849.251 344L845 344M849.251 344L853 344" stroke="#BBC2FF" stroke-width="2" stroke-linecap="round"/>
<path d="M908 332.214C908 332.214 912.251 327.495 912.251 329.494V344M912.251 344L908 344M912.251 344L916 344" stroke="#BBC2FF" stroke-width="2" stroke-linecap="round"/>
<path d="M845 357.214C845 357.214 849.251 352.495 849.251 354.494V369M849.251 369L845 369M849.251 369L853 369" stroke="#BBC2FF" stroke-width="2" stroke-linecap="round"/>
<path d="M886 357.214C886 357.214 890.783 352.495 890.783 354.494V369M890.783 369L886 369M890.783 369L895 369" stroke="#BBC2FF" stroke-width="2" stroke-linecap="round"/>
<path d="M845 381.428C845 381.428 849.251 376.394 849.251 378.526V394M849.251 394L845 394M849.251 394L853 394" stroke="#BBC2FF" stroke-width="2" stroke-linecap="round"/>
<path d="M824 357.214C824 357.214 828.783 352.495 828.783 354.494V369M828.783 369L824 369M828.783 369L833 369" stroke="#BBC2FF" stroke-width="2" stroke-linecap="round"/>
<path d="M845 408.428C845 408.428 849.251 403.394 849.251 405.526V421M849.251 421L845 421M849.251 421L853 421" stroke="#BBC2FF" stroke-width="2" stroke-linecap="round"/>
<path d="M908 408.428C908 408.428 912.251 403.394 912.251 405.526V421M912.251 421L908 421M912.251 421L916 421" stroke="#BBC2FF" stroke-width="2" stroke-linecap="round"/>
<path d="M845 433.428C845 433.428 849.251 428.394 849.251 430.526V446M849.251 446L845 446M849.251 446L853 446" stroke="#BBC2FF" stroke-width="2" stroke-linecap="round"/>
<path d="M886 433.428C886 433.428 890.783 428.394 890.783 430.526V446M890.783 446L886 446M890.783 446L895 446" stroke="#BBC2FF" stroke-width="2" stroke-linecap="round"/>
<path d="M824 433.428C824 433.428 828.783 428.394 828.783 430.526V446M828.783 446L824 446M828.783 446L833 446" stroke="#BBC2FF" stroke-width="2" stroke-linecap="round"/>
<path d="M950 332.214C950 332.214 954.251 327.495 954.251 329.494V344M954.251 344L950 344M954.251 344L958 344" stroke="#BBC2FF" stroke-width="2" stroke-linecap="round"/>
<path d="M928 357.214C928 357.214 932.251 352.495 932.251 354.494V369M932.251 369L928 369M932.251 369L936 369" stroke="#BBC2FF" stroke-width="2" stroke-linecap="round"/>
<path d="M950 408.428C950 408.428 954.251 403.394 954.251 405.526V421M954.251 421L950 421M954.251 421L958 421" stroke="#BBC2FF" stroke-width="2" stroke-linecap="round"/>
<path d="M928 433.428C928 433.428 932.251 428.394 932.251 430.526V446M932.251 446L928 446M932.251 446L936 446" stroke="#BBC2FF" stroke-width="2" stroke-linecap="round"/>
<path d="M832 412.5C832 414.701 831.473 416.644 830.674 418.003C829.86 419.386 828.882 420 828 420C827.118 420 826.14 419.386 825.326 418.003C824.527 416.644 824 414.701 824 412.5C824 410.299 824.527 408.356 825.326 406.997C826.14 405.614 827.118 405 828 405C828.882 405 829.86 405.614 830.674 406.997C831.473 408.356 832 410.299 832 412.5Z" stroke="#EEF0FF" stroke-width="2"/>
<path d="M873 438C873 440.07 872.526 441.895 871.81 443.167C871.077 444.47 870.221 445 869.5 445C868.779 445 867.923 444.47 867.19 443.167C866.474 441.895 866 440.07 866 438C866 435.93 866.474 434.105 867.19 432.833C867.923 431.53 868.779 431 869.5 431C870.221 431 871.077 431.53 871.81 432.833C872.526 434.105 873 435.93 873 438Z" stroke="#EEF0FF" stroke-width="2"/>
<path d="M957 361.5C957 363.701 956.473 365.644 955.674 367.003C954.86 368.386 953.882 369 953 369C952.118 369 951.14 368.386 950.326 367.003C949.527 365.644 949 363.701 949 361.5C949 359.299 949.527 357.356 950.326 355.997C951.14 354.614 952.118 354 953 354C953.882 354 954.86 354.614 955.674 355.997C956.473 357.356 957 359.299 957 361.5Z" stroke="#EEF0FF" stroke-width="2"/>
<path d="M730 336.5C730 338.717 729.522 340.675 728.798 342.043C728.051 343.455 727.19 344 726.5 344C725.81 344 724.949 343.455 724.202 342.043C723.478 340.675 723 338.717 723 336.5C723 334.283 723.478 332.325 724.202 330.957C724.949 329.546 725.81 329 726.5 329C727.19 329 728.051 329.546 728.798 330.957C729.522 332.325 730 334.283 730 336.5Z" stroke="#EEF0FF" stroke-width="2"/>
<path d="M730 361.5C730 363.717 729.522 365.675 728.798 367.043C728.051 368.455 727.19 369 726.5 369C725.81 369 724.949 368.455 724.202 367.043C723.478 365.675 723 363.717 723 361.5C723 359.283 723.478 357.325 724.202 355.957C724.949 354.546 725.81 354 726.5 354C727.19 354 728.051 354.546 728.798 355.957C729.522 357.325 730 359.283 730 361.5Z" stroke="#EEF0FF" stroke-width="2"/>
<path d="M730 386.5C730 388.717 729.522 390.675 728.798 392.043C728.051 393.455 727.19 394 726.5 394C725.81 394 724.949 393.455 724.202 392.043C723.478 390.675 723 388.717 723 386.5C723 384.283 723.478 382.325 724.202 380.957C724.949 379.546 725.81 379 726.5 379C727.19 379 728.051 379.546 728.798 380.957C729.522 382.325 730 384.283 730 386.5Z" stroke="#EEF0FF" stroke-width="2"/>
<path d="M730 336.5C730 338.717 729.522 340.675 728.798 342.043C728.051 343.455 727.19 344 726.5 344C725.81 344 724.949 343.455 724.202 342.043C723.478 340.675 723 338.717 723 336.5C723 334.283 723.478 332.325 724.202 330.957C724.949 329.546 725.81 329 726.5 329C727.19 329 728.051 329.546 728.798 330.957C729.522 332.325 730 334.283 730 336.5Z" stroke="#EEF0FF" stroke-width="2"/>
<path d="M730 361.5C730 363.717 729.522 365.675 728.798 367.043C728.051 368.455 727.19 369 726.5 369C725.81 369 724.949 368.455 724.202 367.043C723.478 365.675 723 363.717 723 361.5C723 359.283 723.478 357.325 724.202 355.957C724.949 354.546 725.81 354 726.5 354C727.19 354 728.051 354.546 728.798 355.957C729.522 357.325 730 359.283 730 361.5Z" stroke="#EEF0FF" stroke-width="2"/>
<path d="M730 386.5C730 388.717 729.522 390.675 728.798 392.043C728.051 393.455 727.19 394 726.5 394C725.81 394 724.949 393.455 724.202 392.043C723.478 390.675 723 388.717 723 386.5C723 384.283 723.478 382.325 724.202 380.957C724.949 379.546 725.81 379 726.5 379C727.19 379 728.051 379.546 728.798 380.957C729.522 382.325 730 384.283 730 386.5Z" stroke="#EEF0FF" stroke-width="2"/>
<path d="M730 336.5C730 338.717 729.522 340.675 728.798 342.043C728.051 343.455 727.19 344 726.5 344C725.81 344 724.949 343.455 724.202 342.043C723.478 340.675 723 338.717 723 336.5C723 334.283 723.478 332.325 724.202 330.957C724.949 329.546 725.81 329 726.5 329C727.19 329 728.051 329.546 728.798 330.957C729.522 332.325 730 334.283 730 336.5Z" stroke="#EEF0FF" stroke-width="2"/>
<path d="M752 336.5C752 338.701 751.473 340.644 750.674 342.003C749.86 343.386 748.882 344 748 344C747.118 344 746.14 343.386 745.326 342.003C744.527 340.644 744 338.701 744 336.5C744 334.299 744.527 332.356 745.326 330.997C746.14 329.614 747.118 329 748 329C748.882 329 749.86 329.614 750.674 330.997C751.473 332.356 752 334.299 752 336.5Z" stroke="#EEF0FF" stroke-width="2"/>
<path d="M772 361.5C772 363.717 771.522 365.675 770.798 367.043C770.051 368.455 769.19 369 768.5 369C767.81 369 766.949 368.455 766.202 367.043C765.478 365.675 765 363.717 765 361.5C765 359.283 765.478 357.325 766.202 355.957C766.949 354.546 767.81 354 768.5 354C769.19 354 770.051 354.546 770.798 355.957C771.522 357.325 772 359.283 772 361.5Z" stroke="#EEF0FF" stroke-width="2"/>
<path d="M730 361.5C730 363.717 729.522 365.675 728.798 367.043C728.051 368.455 727.19 369 726.5 369C725.81 369 724.949 368.455 724.202 367.043C723.478 365.675 723 363.717 723 361.5C723 359.283 723.478 357.325 724.202 355.957C724.949 354.546 725.81 354 726.5 354C727.19 354 728.051 354.546 728.798 355.957C729.522 357.325 730 359.283 730 361.5Z" stroke="#EEF0FF" stroke-width="2"/>
<path d="M730 412.5C730 414.717 729.522 416.675 728.798 418.043C728.051 419.455 727.19 420 726.5 420C725.81 420 724.949 419.455 724.202 418.043C723.478 416.675 723 414.717 723 412.5C723 410.283 723.478 408.325 724.202 406.957C724.949 405.546 725.81 405 726.5 405C727.19 405 728.051 405.546 728.798 406.957C729.522 408.325 730 410.283 730 412.5Z" stroke="#EEF0FF" stroke-width="2"/>
<path d="M752 412.5C752 414.701 751.473 416.644 750.674 418.003C749.86 419.386 748.882 420 748 420C747.118 420 746.14 419.386 745.326 418.003C744.527 416.644 744 414.701 744 412.5C744 410.299 744.527 408.356 745.326 406.997C746.14 405.614 747.118 405 748 405C748.882 405 749.86 405.614 750.674 406.997C751.473 408.356 752 410.299 752 412.5Z" stroke="#EEF0FF" stroke-width="2"/>
<path d="M772 438C772 440.07 771.526 441.895 770.81 443.167C770.077 444.47 769.221 445 768.5 445C767.779 445 766.923 444.47 766.19 443.167C765.474 441.895 765 440.07 765 438C765 435.93 765.474 434.105 766.19 432.833C766.923 431.53 767.779 431 768.5 431C769.221 431 770.077 431.53 770.81 432.833C771.526 434.105 772 435.93 772 438Z" stroke="#EEF0FF" stroke-width="2"/>
<path d="M730 438C730 440.07 729.526 441.895 728.81 443.167C728.077 444.47 727.221 445 726.5 445C725.779 445 724.923 444.47 724.19 443.167C723.474 441.895 723 440.07 723 438C723 435.93 723.474 434.105 724.19 432.833C724.923 431.53 725.779 431 726.5 431C727.221 431 728.077 431.53 728.81 432.833C729.526 434.105 730 435.93 730 438Z" stroke="#EEF0FF" stroke-width="2"/>
<path d="M772 386.5C772 388.717 771.522 390.675 770.798 392.043C770.051 393.455 769.19 394 768.5 394C767.81 394 766.949 393.455 766.202 392.043C765.478 390.675 765 388.717 765 386.5C765 384.283 765.478 382.325 766.202 380.957C766.949 379.546 767.81 379 768.5 379C769.19 379 770.051 379.546 770.798 380.957C771.522 382.325 772 384.283 772 386.5Z" stroke="#EEF0FF" stroke-width="2"/>
<path d="M730 386.5C730 388.717 729.522 390.675 728.798 392.043C728.051 393.455 727.19 394 726.5 394C725.81 394 724.949 393.455 724.202 392.043C723.478 390.675 723 388.717 723 386.5C723 384.283 723.478 382.325 724.202 380.957C724.949 379.546 725.81 379 726.5 379C727.19 379 728.051 379.546 728.798 380.957C729.522 382.325 730 384.283 730 386.5Z" stroke="#EEF0FF" stroke-width="2"/>
<path d="M752 386.5C752 388.701 751.473 390.644 750.674 392.003C749.86 393.386 748.882 394 748 394C747.118 394 746.14 393.386 745.326 392.003C744.527 390.644 744 388.701 744 386.5C744 384.299 744.527 382.356 745.326 380.997C746.14 379.614 747.118 379 748 379C748.882 379 749.86 379.614 750.674 380.997C751.473 382.356 752 384.299 752 386.5Z" stroke="#EEF0FF" stroke-width="2"/>
<path d="M794 336.5C794 338.701 793.473 340.644 792.674 342.003C791.86 343.386 790.882 344 790 344C789.118 344 788.14 343.386 787.326 342.003C786.527 340.644 786 338.701 786 336.5C786 334.299 786.527 332.356 787.326 330.997C788.14 329.614 789.118 329 790 329C790.882 329 791.86 329.614 792.674 330.997C793.473 332.356 794 334.299 794 336.5Z" stroke="#EEF0FF" stroke-width="2"/>
<path d="M814 361.5C814 363.701 813.473 365.644 812.674 367.003C811.86 368.386 810.882 369 810 369C809.118 369 808.14 368.386 807.326 367.003C806.527 365.644 806 363.701 806 361.5C806 359.299 806.527 357.356 807.326 355.997C808.14 354.614 809.118 354 810 354C810.882 354 811.86 354.614 812.674 355.997C813.473 357.356 814 359.299 814 361.5Z" stroke="#EEF0FF" stroke-width="2"/>
<path d="M794 412.5C794 414.701 793.473 416.644 792.674 418.003C791.86 419.386 790.882 420 790 420C789.118 420 788.14 419.386 787.326 418.003C786.527 416.644 786 414.701 786 412.5C786 410.299 786.527 408.356 787.326 406.997C788.14 405.614 789.118 405 790 405C790.882 405 791.86 405.614 792.674 406.997C793.473 408.356 794 410.299 794 412.5Z" stroke="#EEF0FF" stroke-width="2"/>
<path d="M814 438C814 440.052 813.478 441.862 812.688 443.127C811.888 444.406 810.912 445 810 445C809.088 445 808.112 444.406 807.312 443.127C806.522 441.862 806 440.052 806 438C806 435.948 806.522 434.138 807.312 432.873C808.112 431.594 809.088 431 810 431C810.912 431 811.888 431.594 812.688 432.873C813.478 434.138 814 435.948 814 438Z" stroke="#EEF0FF" stroke-width="2"/>
<path d="M814 386.5C814 388.701 813.473 390.644 812.674 392.003C811.86 393.386 810.882 394 810 394C809.118 394 808.14 393.386 807.326 392.003C806.527 390.644 806 388.701 806 386.5C806 384.299 806.527 382.356 807.326 380.997C808.14 379.614 809.118 379 810 379C810.882 379 811.86 379.614 812.674 380.997C813.473 382.356 814 384.299 814 386.5Z" stroke="#EEF0FF" stroke-width="2"/>
<path d="M794 386.5C794 388.701 793.473 390.644 792.674 392.003C791.86 393.386 790.882 394 790 394C789.118 394 788.14 393.386 787.326 392.003C786.527 390.644 786 388.701 786 386.5C786 384.299 786.527 382.356 787.326 380.997C788.14 379.614 789.118 379 790 379C790.882 379 791.86 379.614 792.674 380.997C793.473 382.356 794 384.299 794 386.5Z" stroke="#EEF0FF" stroke-width="2"/>
<path d="M873 336.5C873 338.717 872.522 340.675 871.798 342.043C871.051 343.455 870.19 344 869.5 344C868.81 344 867.949 343.455 867.202 342.043C866.478 340.675 866 338.717 866 336.5C866 334.283 866.478 332.325 867.202 330.957C867.949 329.546 868.81 329 869.5 329C870.19 329 871.051 329.546 871.798 330.957C872.522 332.325 873 334.283 873 336.5Z" stroke="#EEF0FF" stroke-width="2"/>
<path d="M832 336.5C832 338.701 831.473 340.644 830.674 342.003C829.86 343.386 828.882 344 828 344C827.118 344 826.14 343.386 825.326 342.003C824.527 340.644 824 338.701 824 336.5C824 334.299 824.527 332.356 825.326 330.997C826.14 329.614 827.118 329 828 329C828.882 329 829.86 329.614 830.674 330.997C831.473 332.356 832 334.299 832 336.5Z" stroke="#EEF0FF" stroke-width="2"/>
<path d="M895 336.5C895 338.701 894.473 340.644 893.674 342.003C892.86 343.386 891.882 344 891 344C890.118 344 889.14 343.386 888.326 342.003C887.527 340.644 887 338.701 887 336.5C887 334.299 887.527 332.356 888.326 330.997C889.14 329.614 890.118 329 891 329C891.882 329 892.86 329.614 893.674 330.997C894.473 332.356 895 334.299 895 336.5Z" stroke="#EEF0FF" stroke-width="2"/>
<path d="M915 361.5C915 363.717 914.522 365.675 913.798 367.043C913.051 368.455 912.19 369 911.5 369C910.81 369 909.949 368.455 909.202 367.043C908.478 365.675 908 363.717 908 361.5C908 359.283 908.478 357.325 909.202 355.957C909.949 354.546 910.81 354 911.5 354C912.19 354 913.051 354.546 913.798 355.957C914.522 357.325 915 359.283 915 361.5Z" stroke="#EEF0FF" stroke-width="2"/>
<path d="M873 361.5C873 363.717 872.522 365.675 871.798 367.043C871.051 368.455 870.19 369 869.5 369C868.81 369 867.949 368.455 867.202 367.043C866.478 365.675 866 363.717 866 361.5C866 359.283 866.478 357.325 867.202 355.957C867.949 354.546 868.81 354 869.5 354C870.19 354 871.051 354.546 871.798 355.957C872.522 357.325 873 359.283 873 361.5Z" stroke="#EEF0FF" stroke-width="2"/>
<path d="M873 412.5C873 414.717 872.522 416.675 871.798 418.043C871.051 419.455 870.19 420 869.5 420C868.81 420 867.949 419.455 867.202 418.043C866.478 416.675 866 414.717 866 412.5C866 410.283 866.478 408.325 867.202 406.957C867.949 405.546 868.81 405 869.5 405C870.19 405 871.051 405.546 871.798 406.957C872.522 408.325 873 410.283 873 412.5Z" stroke="#EEF0FF" stroke-width="2"/>
<path d="M895 412.5C895 414.701 894.473 416.644 893.674 418.003C892.86 419.386 891.882 420 891 420C890.118 420 889.14 419.386 888.326 418.003C887.527 416.644 887 414.701 887 412.5C887 410.299 887.527 408.356 888.326 406.997C889.14 405.614 890.118 405 891 405C891.882 405 892.86 405.614 893.674 406.997C894.473 408.356 895 410.299 895 412.5Z" stroke="#EEF0FF" stroke-width="2"/>
<path d="M915 438C915 440.07 914.526 441.895 913.81 443.167C913.077 444.47 912.221 445 911.5 445C910.779 445 909.923 444.47 909.19 443.167C908.474 441.895 908 440.07 908 438C908 435.93 908.474 434.105 909.19 432.833C909.923 431.53 910.779 431 911.5 431C912.221 431 913.077 431.53 913.81 432.833C914.526 434.105 915 435.93 915 438Z" stroke="#EEF0FF" stroke-width="2"/>
<path d="M915 386.5C915 388.717 914.522 390.675 913.798 392.043C913.051 393.455 912.19 394 911.5 394C910.81 394 909.949 393.455 909.202 392.043C908.478 390.675 908 388.717 908 386.5C908 384.283 908.478 382.325 909.202 380.957C909.949 379.546 910.81 379 911.5 379C912.19 379 913.051 379.546 913.798 380.957C914.522 382.325 915 384.283 915 386.5Z" stroke="#EEF0FF" stroke-width="2"/>
<path d="M873 386.5C873 388.717 872.522 390.675 871.798 392.043C871.051 393.455 870.19 394 869.5 394C868.81 394 867.949 393.455 867.202 392.043C866.478 390.675 866 388.717 866 386.5C866 384.283 866.478 382.325 867.202 380.957C867.949 379.546 868.81 379 869.5 379C870.19 379 871.051 379.546 871.798 380.957C872.522 382.325 873 384.283 873 386.5Z" stroke="#EEF0FF" stroke-width="2"/>
<path d="M832 386.5C832 388.701 831.473 390.644 830.674 392.003C829.86 393.386 828.882 394 828 394C827.118 394 826.14 393.386 825.326 392.003C824.527 390.644 824 388.701 824 386.5C824 384.299 824.527 382.356 825.326 380.997C826.14 379.614 827.118 379 828 379C828.882 379 829.86 379.614 830.674 380.997C831.473 382.356 832 384.299 832 386.5Z" stroke="#EEF0FF" stroke-width="2"/>
<path d="M895 386.5C895 388.701 894.473 390.644 893.674 392.003C892.86 393.386 891.882 394 891 394C890.118 394 889.14 393.386 888.326 392.003C887.527 390.644 887 388.701 887 386.5C887 384.299 887.527 382.356 888.326 380.997C889.14 379.614 890.118 379 891 379C891.882 379 892.86 379.614 893.674 380.997C894.473 382.356 895 384.299 895 386.5Z" stroke="#EEF0FF" stroke-width="2"/>
<path d="M937 336.5C937 338.701 936.473 340.644 935.674 342.003C934.86 343.386 933.882 344 933 344C932.118 344 931.14 343.386 930.326 342.003C929.527 340.644 929 338.701 929 336.5C929 334.299 929.527 332.356 930.326 330.997C931.14 329.614 932.118 329 933 329C933.882 329 934.86 329.614 935.674 330.997C936.473 332.356 937 334.299 937 336.5Z" stroke="#EEF0FF" stroke-width="2"/>
<path d="M937 412.5C937 414.701 936.473 416.644 935.674 418.003C934.86 419.386 933.882 420 933 420C932.118 420 931.14 419.386 930.326 418.003C929.527 416.644 929 414.701 929 412.5C929 410.299 929.527 408.356 930.326 406.997C931.14 405.614 932.118 405 933 405C933.882 405 934.86 405.614 935.674 406.997C936.473 408.356 937 410.299 937 412.5Z" stroke="#EEF0FF" stroke-width="2"/>
<path d="M957 438C957 440.052 956.478 441.862 955.688 443.127C954.888 444.406 953.912 445 953 445C952.088 445 951.112 444.406 950.312 443.127C949.522 441.862 949 440.052 949 438C949 435.948 949.522 434.138 950.312 432.873C951.112 431.594 952.088 431 953 431C953.912 431 954.888 431.594 955.688 432.873C956.478 434.138 957 435.948 957 438Z" stroke="#EEF0FF" stroke-width="2"/>
<path d="M957 386.5C957 388.701 956.473 390.644 955.674 392.003C954.86 393.386 953.882 394 953 394C952.118 394 951.14 393.386 950.326 392.003C949.527 390.644 949 388.701 949 386.5C949 384.299 949.527 382.356 950.326 380.997C951.14 379.614 952.118 379 953 379C953.882 379 954.86 379.614 955.674 380.997C956.473 382.356 957 384.299 957 386.5Z" stroke="#EEF0FF" stroke-width="2"/>
<path d="M937 386.5C937 388.701 936.473 390.644 935.674 392.003C934.86 393.386 933.882 394 933 394C932.118 394 931.14 393.386 930.326 392.003C929.527 390.644 929 388.701 929 386.5C929 384.299 929.527 382.356 930.326 380.997C931.14 379.614 932.118 379 933 379C933.882 379 934.86 379.614 935.674 380.997C936.473 382.356 937 384.299 937 386.5Z" stroke="#EEF0FF" stroke-width="2"/>
<mask id="path-193-inside-1_1514_655" fill="white">
<path fill-rule="evenodd" clip-rule="evenodd" d="M785.967 172.473C797.242 180.814 811.191 185.746 826.293 185.746C844.825 185.746 861.622 178.319 873.871 166.278C879.904 169.554 886.818 171.415 894.166 171.415C904.045 171.415 913.138 168.052 920.363 162.409C925.204 165.345 930.884 167.036 936.96 167.036C954.658 167.036 969.005 152.689 969.005 134.991C969.005 117.292 954.658 102.945 936.96 102.945C934.134 102.945 931.394 103.311 928.784 103.997C921.053 93.2351 908.428 86.2255 894.166 86.2255C891.616 86.2255 889.119 86.4495 886.692 86.879C875.432 64.9801 852.612 50 826.293 50C798.044 50 773.825 67.2578 763.606 91.8055C740.004 92.2223 721 111.397 721 134.991C721 158.845 740.427 178.182 764.391 178.182C772.245 178.182 779.612 176.105 785.967 172.473Z"/>
</mask>
<path fill-rule="evenodd" clip-rule="evenodd" d="M785.967 172.473C797.242 180.814 811.191 185.746 826.293 185.746C844.825 185.746 861.622 178.319 873.871 166.278C879.904 169.554 886.818 171.415 894.166 171.415C904.045 171.415 913.138 168.052 920.363 162.409C925.204 165.345 930.884 167.036 936.96 167.036C954.658 167.036 969.005 152.689 969.005 134.991C969.005 117.292 954.658 102.945 936.96 102.945C934.134 102.945 931.394 103.311 928.784 103.997C921.053 93.2351 908.428 86.2255 894.166 86.2255C891.616 86.2255 889.119 86.4495 886.692 86.879C875.432 64.9801 852.612 50 826.293 50C798.044 50 773.825 67.2578 763.606 91.8055C740.004 92.2223 721 111.397 721 134.991C721 158.845 740.427 178.182 764.391 178.182C772.245 178.182 779.612 176.105 785.967 172.473Z" fill="white"/>
<path d="M785.967 172.473L788.94 168.453L786.318 166.513L783.485 168.132L785.967 172.473ZM873.871 166.278L876.257 161.884L873.005 160.119L870.366 162.713L873.871 166.278ZM920.363 162.409L922.956 158.134L920.005 156.344L917.285 158.468L920.363 162.409ZM928.784 103.997L924.723 106.914L926.73 109.708L930.056 108.833L928.784 103.997ZM886.692 86.879L882.245 89.1654L883.932 92.4453L887.563 91.8025L886.692 86.879ZM763.606 91.8055L763.694 96.8048L766.965 96.747L768.222 93.7272L763.606 91.8055ZM826.293 180.746C812.298 180.746 799.384 176.179 788.94 168.453L782.993 176.492C795.099 185.449 810.085 190.746 826.293 190.746V180.746ZM870.366 162.713C859.014 173.871 843.461 180.746 826.293 180.746V190.746C846.189 190.746 864.23 182.766 877.376 169.844L870.366 162.713ZM894.166 166.415C887.672 166.415 881.576 164.773 876.257 161.884L871.485 170.672C878.233 174.336 885.964 176.415 894.166 176.415V166.415ZM917.285 158.468C910.908 163.45 902.89 166.415 894.166 166.415V176.415C905.199 176.415 915.368 172.655 923.441 166.349L917.285 158.468ZM936.96 162.036C931.824 162.036 927.037 160.61 922.956 158.134L917.77 166.684C923.37 170.081 929.944 172.036 936.96 172.036V162.036ZM964.005 134.991C964.005 149.927 951.897 162.036 936.96 162.036V172.036C957.419 172.036 974.005 155.45 974.005 134.991H964.005ZM936.96 107.945C951.897 107.945 964.005 120.054 964.005 134.991H974.005C974.005 114.531 957.419 97.9449 936.96 97.9449V107.945ZM930.056 108.833C932.255 108.254 934.567 107.945 936.96 107.945V97.9449C933.701 97.9449 930.534 98.3668 927.512 99.1617L930.056 108.833ZM894.166 91.2255C906.75 91.2255 917.891 97.4036 924.723 106.914L932.845 101.08C924.215 89.0666 910.106 81.2255 894.166 81.2255V91.2255ZM887.563 91.8025C889.704 91.4237 891.91 91.2255 894.166 91.2255V81.2255C891.323 81.2255 888.534 81.4754 885.82 81.9556L887.563 91.8025ZM826.293 55C850.666 55 871.808 68.8673 882.245 89.1654L891.139 84.5927C879.055 61.0929 854.558 45 826.293 45V55ZM768.222 93.7272C777.693 70.9782 800.133 55 826.293 55V45C795.955 45 769.958 63.5375 758.99 89.8839L768.222 93.7272ZM763.518 86.8063C737.215 87.2708 716 108.644 716 134.991H726C726 114.15 742.793 97.1739 763.694 96.8048L763.518 86.8063ZM716 134.991C716 161.628 737.687 183.182 764.391 183.182V173.182C743.167 173.182 726 156.062 726 134.991H716ZM764.391 183.182C773.137 183.182 781.356 180.867 788.448 176.814L783.485 168.132C777.867 171.343 771.353 173.182 764.391 173.182V183.182Z" fill="#5566FF" mask="url(#path-193-inside-1_1514_655)"/>
<path fill-rule="evenodd" clip-rule="evenodd" d="M122.661 529C122.807 528.208 122.888 527.532 122.888 527.532V520.851C125.39 520.199 127.799 519.259 130.071 518.047L135.79 523.834C137.04 525.099 139.089 525.108 140.357 523.855L148.547 515.761C149.815 514.508 149.828 512.461 148.577 511.195L143.039 505.592C144.396 503.286 145.464 500.831 146.223 498.268L153.993 498.312C154.857 498.318 155.672 497.987 156.285 497.381C156.901 496.774 157.241 495.964 157.245 495.099L157.315 483.589C157.326 481.859 155.83 480.345 154.1 480.335L146.468 480.289C145.765 477.658 144.74 475.13 143.412 472.75L148.832 467.394C150.1 466.141 150.111 464.09 148.859 462.822L140.763 454.632C139.51 453.364 137.46 453.352 136.19 454.605L130.727 460.005C128.379 458.682 125.875 457.654 123.261 456.941L123.308 449.186C123.326 447.459 121.815 445.935 120.097 445.932L108.577 445.861C106.801 445.855 105.344 447.295 105.33 449.074L105.281 457.067C102.774 457.789 100.362 458.812 98.0901 460.113L92.3924 454.348C91.1368 453.077 89.084 453.063 87.8166 454.315L79.6265 462.41C78.358 463.663 78.3491 465.717 79.6042 466.987L85.4833 472.935C84.2729 475.144 83.3193 477.483 82.6413 479.914L74.1765 479.866C72.4012 479.853 70.9445 481.291 70.9282 483.075L70.8594 494.597C70.8488 496.316 72.3505 497.834 74.0697 497.844L82.6836 497.895C83.3582 500.272 84.2954 502.562 85.4791 504.725L79.3436 510.789C78.0775 512.041 78.0681 514.089 79.3213 515.357L87.4164 523.548C88.6696 524.816 90.7178 524.83 91.9833 523.578L98.0746 517.557C100.234 518.794 102.525 519.781 104.911 520.502V527.532C104.911 527.964 105.001 528.476 105.164 529H107.683C107.668 528.546 107.671 527.832 107.672 527.594C107.672 527.567 107.672 527.545 107.672 527.532L107.623 518.454L106.617 518.184C103.777 517.424 101.073 516.257 98.5771 514.718L97.6735 514.161L90.0865 521.659C89.8797 521.863 89.5431 521.86 89.3369 521.651L81.2417 513.46C81.0315 513.248 81.0322 512.918 81.2428 512.711L88.8632 505.18L88.3283 504.274C86.8489 501.768 85.7411 499.059 85.0329 496.225L84.7792 495.208L74.089 495.145C73.9015 495.145 73.7748 495.045 73.7159 494.986C73.6576 494.927 73.5599 494.798 73.561 494.612L73.6297 483.095C73.6314 482.801 73.8701 482.564 74.1615 482.565L84.7415 482.627L84.9946 481.591C85.6998 478.707 86.8207 475.952 88.3273 473.401L88.8555 472.505L81.5246 465.088C81.3153 464.876 81.3153 464.535 81.5246 464.329L89.7151 456.234C89.9239 456.027 90.2636 456.032 90.4729 456.244L97.6666 463.522L98.5813 462.96C101.186 461.353 104.005 460.158 106.959 459.406L107.969 459.149L108.031 449.091C108.033 448.796 108.275 448.557 108.566 448.558L120.089 448.629C120.276 448.628 120.401 448.727 120.458 448.784C120.515 448.843 120.612 448.968 120.61 449.162L120.55 459.048L121.593 459.298C124.658 460.03 127.567 461.224 130.241 462.846L131.141 463.392L138.09 456.524C138.302 456.314 138.634 456.316 138.844 456.529L146.939 464.72C147.145 464.928 147.143 465.267 146.935 465.473L140.017 472.309L140.565 473.219C142.194 475.929 143.383 478.862 144.099 481.938L144.341 482.975L154.085 483.032C154.279 483.033 154.405 483.132 154.462 483.19C154.521 483.249 154.617 483.376 154.616 483.57L154.546 495.083C154.546 495.275 154.447 495.401 154.389 495.459C154.331 495.516 154.204 495.612 154.011 495.611L144.162 495.554L143.896 496.569C143.107 499.578 141.863 502.437 140.196 505.066L139.622 505.974L146.658 513.093C146.861 513.299 146.858 513.635 146.649 513.841L138.459 521.935C138.249 522.143 137.913 522.142 137.708 521.937L130.54 514.685L129.639 515.203C127.026 516.704 124.202 517.805 121.246 518.475L120.2 518.712V527.532C120.2 527.658 120.129 528.47 120.065 529H122.661ZM128.005 503.166C135.768 495.493 135.841 482.935 128.167 475.171C120.494 467.407 107.936 467.334 100.173 475.006C92.4091 482.679 92.3347 495.238 100.008 503.002C107.681 510.766 120.241 510.839 128.005 503.166ZM126.107 501.246C119.401 507.874 108.556 507.81 101.928 501.104C95.3011 494.399 95.3648 483.554 102.07 476.926C108.775 470.3 119.62 470.364 126.247 477.069C132.875 483.775 132.811 494.62 126.107 501.246Z" fill="#6070FF"/>
<path fill-rule="evenodd" clip-rule="evenodd" d="M0 443.732L2.90721 440.222C1.78306 438.579 0.810471 436.839 0 435.019V430.94L1.26591 430.822L1.61931 431.808C2.60535 434.558 3.97667 437.143 5.69755 439.49L6.31978 440.338L0 447.967V443.732ZM0 453.206L6.70395 458.759C8.07683 459.897 10.1163 459.707 11.2512 458.335L16.7146 451.74C18.9861 452.756 21.3641 453.511 23.8099 453.992L24.5079 460.986C24.6762 462.698 26.401 465.519 28.1264 465.368L39.5896 464.285C40.4544 464.204 41.2326 463.792 41.7835 463.124C42.3321 462.46 42.3954 459.202 42.3954 459.202L41.732 452.553C44.1577 451.656 46.4608 450.481 48.6011 449.05L54.8666 454.24C56.2366 455.375 58.2764 455.181 59.4136 453.808L66.7589 444.941C67.8962 443.569 67.7061 441.53 66.3359 440.395L60.2692 435.369C61.3903 432.939 62.2087 430.391 62.71 427.765L70.4456 427.037C71.3062 426.958 72.0839 426.548 72.6344 425.883C73.1863 425.219 73.4442 424.378 73.3627 423.517L72.289 412.057C72.1287 410.335 70.4902 408.977 68.767 409.138L61.1688 409.851C60.2074 407.303 58.9373 404.889 57.3793 402.652L62.2401 396.785C63.3773 395.412 63.1851 393.37 61.8129 392.233L52.9444 384.887C51.5716 383.749 49.5301 383.941 48.3914 385.315L43.4911 391.23C41.0234 390.146 38.4301 389.372 35.7577 388.922L35.0344 381.201C34.8811 379.481 33.2261 378.114 31.5167 378.282L20.0462 379.355C18.2784 379.526 16.9714 381.103 17.1343 382.875L17.8794 390.833C15.4566 391.801 13.1582 393.058 11.0262 394.577L4.78432 389.407C3.40872 388.267 1.36463 388.457 0.227905 389.829L0 390.104V394.335L2.30749 391.549C2.4948 391.323 2.83325 391.294 3.06251 391.484L10.9434 398.012L11.7977 397.362C14.2304 395.505 16.9169 394.035 19.7808 392.994L20.7609 392.637L19.8235 382.624C19.7959 382.329 20.0137 382.068 20.3032 382.04L31.7761 380.966C31.9627 380.947 32.0963 381.033 32.1585 381.084C32.2216 381.137 32.3302 381.252 32.3471 381.445L33.2692 391.289L34.3322 391.433C37.4546 391.858 40.4681 392.757 43.2892 394.105L44.2393 394.559L50.4721 387.035C50.6625 386.805 50.9925 386.775 51.2227 386.965L60.0911 394.312C60.317 394.499 60.3488 394.836 60.1617 395.062L53.9575 402.551L54.5922 403.402C56.4823 405.937 57.9569 408.737 58.9745 411.727L59.3184 412.735L69.0199 411.824C69.2128 411.806 69.3482 411.892 69.4113 411.944C69.4751 411.997 69.5839 412.114 69.602 412.306L70.6758 423.769C70.6945 423.961 70.6087 424.096 70.5564 424.159C70.5043 424.222 70.3879 424.33 70.1953 424.348L60.3893 425.27L60.2256 426.305C59.7393 429.378 58.7852 432.346 57.3877 435.128L56.9065 436.089L64.6142 442.473C64.8373 442.658 64.8673 442.993 64.6802 443.219L57.3344 452.086C57.1461 452.314 56.8118 452.346 56.5875 452.163L48.7346 445.658L47.8895 446.263C45.4381 448.016 42.738 449.393 39.8631 450.352L38.8455 450.692L39.7213 459.468C39.74 459.654 39.7526 461.348 39.7009 461.41C39.6486 461.473 39.5323 461.581 39.3384 461.599L27.8804 462.682C27.6877 462.699 27.5512 462.613 27.4861 462.559C27.4263 462.509 27.2945 461.124 27.2613 460.774C27.2587 460.747 27.2567 460.726 27.2553 460.712L26.3049 451.684L25.2767 451.516C22.3759 451.041 19.5695 450.149 16.9327 448.864L15.9783 448.4L9.17326 456.615C8.98784 456.839 8.65245 456.868 8.42655 456.681L0 449.701V453.206ZM0 405.284V418.158L0.128081 417.25C0.54354 414.311 1.3853 411.458 2.63114 408.769L3.06781 407.826L0 405.284ZM45.0677 434.448C52.0307 426.042 50.8563 413.538 42.4501 406.575C34.0439 399.611 21.5404 400.785 14.5775 409.191C7.61402 417.597 8.78702 430.101 17.1932 437.064C25.5994 444.028 38.1042 442.854 45.0677 434.448ZM42.9886 432.726C36.9741 439.987 26.176 441 18.9153 434.986C11.6554 428.972 10.6419 418.174 16.6564 410.913C22.6698 403.654 33.4678 402.64 40.7277 408.654C47.9885 414.669 49.002 425.467 42.9886 432.726Z" fill="#6070FF"/>
<path fill-rule="evenodd" clip-rule="evenodd" d="M64.4374 529C64.6477 527.504 64.7842 525.996 64.8461 524.481L75.2278 522.05C77.6566 521.481 79.1698 519.045 78.602 516.62L74.9322 500.95C74.3641 498.524 71.9265 497.014 69.4955 497.582L59.0296 500.034C57.1958 496.743 54.9603 493.691 52.3626 490.934L58.0877 481.724C59.3726 479.678 58.6838 476.759 56.6369 475.502L42.944 467.013C40.8296 465.71 38.0381 466.364 36.7214 468.474L30.8197 477.966C27.3003 476.999 23.6753 476.458 20.0133 476.351L17.4304 465.322C16.8612 462.892 14.4228 461.377 11.9949 461.945L0 464.754V468.472L12.8573 465.617C13.2574 465.523 13.6592 465.777 13.7541 466.182L17.0152 480.107L18.5175 480.104C22.8003 480.089 27.0378 480.72 31.1104 481.979L32.5045 482.41L39.931 470.465C40.149 470.114 40.6129 470.007 40.9592 470.22L54.655 478.711C54.8792 478.847 54.9555 479.055 54.9813 479.165C55.0074 479.277 55.0306 479.497 54.8864 479.726L47.587 491.468L48.6496 492.526C51.7704 495.636 54.3687 499.181 56.3726 503.065L57.0474 504.373L70.3593 501.255C70.7661 501.16 71.1596 501.405 71.2548 501.811L74.9246 517.481C75.018 517.88 74.7685 518.282 74.3689 518.376L61.118 521.479L61.106 522.962C61.0884 524.991 60.9261 527.007 60.6209 529H64.4374ZM44.8494 529C45.8327 524.934 45.9051 520.587 44.8883 516.245C41.4098 501.392 26.4806 492.142 11.6095 495.625C7.17975 496.662 3.24697 498.714 0 501.476V506.752C3.17289 503.155 7.45191 500.474 12.4694 499.299C25.3128 496.291 38.2054 504.279 41.2096 517.107C42.1614 521.171 42.0083 525.241 40.9464 529H44.8494Z" fill="#6070FF"/>
</svg>
