<svg width="18" height="18" viewBox="0 0 18 18" fill="none" xmlns="http://www.w3.org/2000/svg">
<rect width="18" height="18" rx="2" fill="#8B5CF7"/>
<path d="M8.00005 3.5V13H13.5001C13.5001 13 15 13 15.0001 14.5C15.0001 16 13.5 16 13.5 16H5.00005H2.50005C2.90005 16 4.5 15 5.00005 13V3.5C5.00005 3.5 1.50016 1.5 6.5 1.5C11.4998 1.5 8.00005 3.5 8.00005 3.5Z" fill="white"/>
<path d="M3.04983 4C3.50784 4.93913 4.72908 5.25217 5.79768 5.4087C5.95035 5.56522 6.16409 6.06609 5.79771 6.81739C5.43133 7.5687 2.59189 5.87826 3.04983 4Z" fill="white"/>
<path d="M9.95017 4C9.49216 4.93913 8.27092 5.25217 7.20232 5.4087C7.04965 5.56522 6.83591 6.06609 7.20229 6.81739C7.56867 7.5687 10.4081 5.87826 9.95017 4Z" fill="white"/>
<path d="M14.5346 12.0259C14.7469 12.7148 14.2618 13.5003 13.781 14.1313C13.7767 14.2858 13.9058 14.6373 14.4568 14.8072C15.0079 14.977 15.674 12.6888 14.5346 12.0259Z" fill="white"/>
</svg>
