<svg width="26" height="24" viewBox="0 0 26 24" fill="none" xmlns="http://www.w3.org/2000/svg">
<rect x="4" width="13" height="10" rx="1" fill="#42B57D"/>
<rect x="5" y="8" width="16" height="9" rx="1" fill="#1FA262"/>
<rect x="9" y="16" width="17" height="8" rx="1" fill="#166941"/>
<rect y="6.63882" width="12.0908" height="11.2376" rx="1" fill="#149657"/>
<path d="M3.5 15.75V8.75H4.5V13.125V15.75H3.5Z" fill="white"/>
<path d="M4 12.9866V8.76842C4 8.76842 5.95756 8.67559 6.56936 8.90669C7.37251 9.21008 7.948 9.79774 7.9969 10.7555C8.04934 11.7829 7.43081 12.5101 6.56936 12.8355C5.95756 13.0666 4 12.9866 4 12.9866Z" fill="white"/>
<path d="M4.5 12.0721V9.59082C4.5 9.59082 5.72347 9.53622 6.10585 9.67216C6.60782 9.85062 6.9675 10.1963 6.99806 10.7597C7.03084 11.364 6.64426 11.7918 6.10585 11.9832C5.72347 12.1192 4.5 12.0721 4.5 12.0721Z" fill="#1C8150"/>
</svg>
