<svg width="608" height="333" viewBox="0 0 608 333" fill="none" xmlns="http://www.w3.org/2000/svg">
<mask id="path-1-inside-1_1512_2" fill="white">
<path fill-rule="evenodd" clip-rule="evenodd" d="M159.224 300.164C186.857 320.607 221.046 332.694 258.058 332.694C303.477 332.694 344.646 314.491 374.665 284.982C389.452 293.011 406.396 297.571 424.405 297.571C448.616 297.571 470.902 289.329 488.61 275.499C500.474 282.696 514.397 286.839 529.287 286.839C572.663 286.839 607.826 251.676 607.826 208.3C607.826 164.924 572.663 129.761 529.287 129.761C522.362 129.761 515.646 130.657 509.249 132.34C490.302 105.963 459.36 88.7836 424.405 88.7836C418.156 88.7836 412.035 89.3327 406.088 90.3853C378.491 36.714 322.562 0 258.058 0C188.823 0 129.468 42.2966 104.421 102.46C46.576 103.481 -1.52588e-05 150.476 -1.52588e-05 208.3C-1.52588e-05 266.763 47.6123 314.157 106.345 314.157C125.594 314.157 143.649 309.067 159.224 300.164Z"/>
</mask>
<path fill-rule="evenodd" clip-rule="evenodd" d="M159.224 300.164C186.857 320.607 221.046 332.694 258.058 332.694C303.477 332.694 344.646 314.491 374.665 284.982C389.452 293.011 406.396 297.571 424.405 297.571C448.616 297.571 470.902 289.329 488.61 275.499C500.474 282.696 514.397 286.839 529.287 286.839C572.663 286.839 607.826 251.676 607.826 208.3C607.826 164.924 572.663 129.761 529.287 129.761C522.362 129.761 515.646 130.657 509.249 132.34C490.302 105.963 459.36 88.7836 424.405 88.7836C418.156 88.7836 412.035 89.3327 406.088 90.3853C378.491 36.714 322.562 0 258.058 0C188.823 0 129.468 42.2966 104.421 102.46C46.576 103.481 -1.52588e-05 150.476 -1.52588e-05 208.3C-1.52588e-05 266.763 47.6123 314.157 106.345 314.157C125.594 314.157 143.649 309.067 159.224 300.164Z" fill="white"/>
<path d="M159.224 300.164L165.172 292.125L159.926 288.244L154.262 291.482L159.224 300.164ZM374.665 284.982L379.436 276.194L372.932 272.663L367.654 277.851L374.665 284.982ZM488.61 275.499L493.797 266.949L487.895 263.368L482.455 267.617L488.61 275.499ZM509.249 132.34L501.127 138.174L505.141 143.761L511.793 142.011L509.249 132.34ZM406.088 90.3853L397.194 94.9581L400.567 101.518L407.83 100.232L406.088 90.3853ZM104.421 102.46L104.598 112.458L111.139 112.343L113.653 106.303L104.421 102.46ZM258.058 322.694C223.259 322.694 191.142 311.338 165.172 292.125L153.277 308.203C182.573 329.876 218.833 342.694 258.058 342.694V322.694ZM367.654 277.851C339.43 305.596 300.75 322.694 258.058 322.694V342.694C306.205 342.694 349.861 323.386 381.675 292.114L367.654 277.851ZM424.405 287.571C408.104 287.571 392.795 283.447 379.436 276.194L369.893 293.771C386.108 302.575 404.688 307.571 424.405 307.571V287.571ZM482.455 267.617C466.442 280.124 446.307 287.571 424.405 287.571V307.571C450.925 307.571 475.362 298.535 494.766 283.38L482.455 267.617ZM529.287 276.839C516.277 276.839 504.141 273.224 493.797 266.949L483.424 284.048C496.807 292.167 512.517 296.839 529.287 296.839V276.839ZM597.826 208.3C597.826 246.153 567.14 276.839 529.287 276.839V296.839C578.186 296.839 617.826 257.199 617.826 208.3H597.826ZM529.287 139.761C567.14 139.761 597.826 170.447 597.826 208.3H617.826C617.826 159.401 578.186 119.761 529.287 119.761V139.761ZM511.793 142.011C517.367 140.544 523.228 139.761 529.287 139.761V119.761C521.495 119.761 513.925 120.769 506.705 122.669L511.793 142.011ZM424.405 98.7836C456.004 98.7836 483.978 114.3 501.127 138.174L517.371 126.506C496.626 97.6263 462.716 78.7836 424.405 78.7836V98.7836ZM407.83 100.232C413.205 99.281 418.743 98.7836 424.405 98.7836V78.7836C417.569 78.7836 410.865 79.3843 404.345 80.5383L407.83 100.232ZM258.058 10C318.67 10 371.244 44.4884 397.194 94.9581L414.981 85.8125C385.738 28.9396 326.454 -10 258.058 -10V10ZM113.653 106.303C137.202 49.7373 193.001 10 258.058 10V-10C184.646 -10 121.733 34.8559 95.1892 98.6162L113.653 106.303ZM104.245 92.4612C40.9983 93.5781 -10 144.97 -10 208.3H9.99998C9.99998 155.982 52.1538 113.384 104.598 112.458L104.245 92.4612ZM-10 208.3C-10 272.33 42.1329 324.157 106.345 324.157V304.157C53.0918 304.157 9.99998 261.197 9.99998 208.3H-10ZM106.345 324.157C127.379 324.157 147.138 318.59 164.187 308.846L154.262 291.482C140.159 299.543 123.81 304.157 106.345 304.157V324.157Z" fill="black" mask="url(#path-1-inside-1_1512_2)"/>
</svg>
